# Blender v2.79 (sub 1) OBJ File: 'untitled.blend'
# www.blender.org
mtllib Wooden-Door.mtl
o Cube.000_Cube.014
v 0.624882 0.124668 -0.248272
v 0.624882 0.251445 -0.248272
v 0.624950 0.124668 -0.184261
v 0.624950 0.251445 -0.184261
v 0.751728 0.124668 -0.248272
v 0.751728 0.251445 -0.248272
v 0.751728 0.124668 -0.184261
v 0.751728 0.251445 -0.184261
v 0.372293 -0.001922 -0.248272
v 0.372293 0.124856 -0.248272
v 0.372293 -0.001922 -0.184261
v 0.372293 0.124856 -0.184261
v 0.499071 -0.001922 -0.248272
v 0.498812 0.124762 -0.248272
v 0.499071 -0.001922 -0.184261
v 0.499071 0.124856 -0.184261
v 0.498554 0.251445 -0.248272
v 0.498036 0.124668 -0.184261
v 0.498036 0.251445 -0.184261
v 0.624814 0.124668 -0.184261
v 0.624814 0.251445 -0.184261
v 0.372293 0.124668 -0.248272
v 0.372293 0.251445 -0.248272
v 0.372293 0.124668 -0.184261
v 0.372293 0.251445 -0.184261
v 0.499071 0.124668 -0.184261
v 0.499071 0.251445 -0.184261
v 0.624882 0.124668 0.250570
v 0.624882 0.251445 0.250570
v 0.624950 0.124668 0.186559
v 0.624950 0.251445 0.186559
v 0.751728 0.124668 0.250570
v 0.751728 0.251445 0.250570
v 0.751728 0.124668 0.186559
v 0.751728 0.251445 0.186559
v 0.372293 -0.001922 0.250570
v 0.372293 0.124856 0.250570
v 0.372293 -0.001922 0.186559
v 0.372293 0.124856 0.186559
v 0.499071 -0.001922 0.250570
v 0.498812 0.124762 0.250570
v 0.499071 -0.001922 0.186559
v 0.499071 0.124856 0.186559
v 0.498554 0.251445 0.250570
v 0.498036 0.124668 0.186559
v 0.498036 0.251445 0.186559
v 0.624814 0.124668 0.186559
v 0.624814 0.251445 0.186559
v 0.372293 0.124668 0.250570
v 0.372293 0.251445 0.250570
v 0.372293 0.124668 0.186559
v 0.372293 0.251445 0.186559
v 0.499071 0.124668 0.186559
v 0.499071 0.251445 0.186559
v 1.000000 -2.000000 -0.187181
v 1.000000 -2.000000 0.187181
v -1.000000 -2.000000 0.187181
v -1.000000 -2.000000 -0.187182
v 0.996403 0.000000 -0.187181
v 0.999999 0.000000 0.187182
v -1.003597 0.000000 -0.187181
v -1.000000 0.000000 0.187181
v 1.000000 2.000000 -0.187181
v 0.999999 2.000000 0.187182
v -1.000000 2.000000 0.187181
v -1.000000 2.000000 -0.187181
v -0.626851 1.625398 0.187181
v -0.626851 1.618947 0.187181
v -0.626265 1.625398 -0.187181
v -0.626851 1.250264 0.187181
v -0.626265 1.250264 -0.187181
v -0.124526 1.625398 0.187181
v -0.124526 1.625398 -0.187181
v -0.124526 1.250264 0.187181
v -0.124526 1.250264 -0.187181
v -0.626265 0.625131 0.187181
v -0.626265 0.625131 -0.187181
v -0.626265 1.000264 0.187181
v -0.626851 1.000124 -0.187181
v -0.124526 0.625131 -0.187181
v -0.124526 0.625131 0.187181
v -0.124526 1.000264 0.187181
v -0.124526 1.000264 -0.187181
v 0.125431 1.250264 0.187181
v 0.125431 1.250264 -0.187181
v 0.125431 1.625398 0.187181
v 0.125431 1.625398 -0.187181
v 0.627169 1.250264 -0.187181
v 0.627169 1.250264 0.187181
v 0.125431 1.000264 -0.187181
v 0.125431 0.998067 0.187181
v 0.125431 0.624991 -0.187181
v 0.125431 0.625131 0.187181
v 0.627169 0.624991 -0.187181
v 0.627169 0.625131 0.187181
v 0.627169 1.000264 -0.187181
v 0.627169 1.000264 0.187181
v 0.627169 1.625398 -0.187181
v 0.627169 1.625398 0.187181
v -0.625678 1.250264 0.187181
v -0.625678 1.625398 0.187181
v 0.125431 0.625270 -0.187181
v 0.627169 0.625270 -0.187181
v -0.625678 1.000404 -0.187181
v -1.000000 1.250264 0.187181
v -1.000000 1.000264 0.187181
v 0.999999 1.250265 0.187182
v 0.720402 1.250264 0.187181
v 0.999999 1.000264 0.187182
v -1.000000 0.625131 0.187181
v 0.999999 0.625131 0.187182
v 0.125431 2.000000 0.187181
v -0.124526 2.000000 0.187181
v 0.627169 2.000000 0.187181
v -0.626851 2.000000 0.187181
v -0.626265 0.000000 0.187181
v -0.124526 0.000000 0.187181
v 0.125431 0.000000 0.187181
v 0.125431 -2.000000 0.187181
v -0.124526 -2.000000 0.187181
v -0.626265 -2.000000 0.187181
v 0.998652 1.250264 -0.187181
v 0.998202 1.000264 -0.187181
v 0.997528 0.625132 -0.187181
v -1.001798 1.000263 -0.187181
v -1.001348 1.250264 -0.187181
v -0.720202 1.250264 -0.187181
v -1.002473 0.625130 -0.187181
v -0.124526 2.000000 -0.187181
v -0.626264 2.000000 -0.187181
v 0.125431 2.000000 -0.187181
v 0.627169 2.000000 -0.187181
v -0.124526 -2.000000 -0.187181
v -0.124526 0.000000 -0.187181
v 0.125431 -2.000000 -0.187181
v 0.125431 0.000000 -0.187181
v -0.626264 2.000000 0.187181
v -0.626265 -2.000000 -0.187181
v -0.626265 0.000000 -0.187181
v 0.999327 1.625398 -0.187181
v 0.813717 1.625398 -0.187181
v 0.999999 1.625398 0.187182
v 0.860299 1.625398 0.187181
v -0.626265 1.000124 -0.187181
v -0.626851 1.000264 0.187181
vt 0.519917 0.835329
vt 0.523087 0.835329
vt 0.523087 0.841745
vt 0.519917 0.841745
vt 0.742849 0.822517
vt 0.746020 0.822517
vt 0.746020 0.828934
vt 0.742849 0.828934
vt 0.687225 0.050609
vt 0.687225 0.057029
vt 0.680946 0.057029
vt 0.680946 0.050609
vt 0.755112 0.569547
vt 0.758282 0.569543
vt 0.758282 0.575963
vt 0.755112 0.575963
vt 0.786281 0.158248
vt 0.789452 0.158248
vt 0.789452 0.164668
vt 0.786281 0.164664
vt 0.891678 0.057026
vt 0.888507 0.057026
vt 0.888507 0.050609
vt 0.891678 0.050609
vt 0.947302 0.822514
vt 0.950472 0.822514
vt 0.950472 0.828925
vt 0.947302 0.828930
vt 0.526196 0.727694
vt 0.526196 0.734110
vt 0.519917 0.734110
vt 0.519922 0.727707
vt 0.947302 0.714879
vt 0.950472 0.714879
vt 0.950472 0.721295
vt 0.947302 0.721295
vt 0.947302 0.930153
vt 0.950472 0.930166
vt 0.950472 0.936569
vt 0.947302 0.936569
vt 0.857338 0.461910
vt 0.860508 0.461905
vt 0.860508 0.468321
vt 0.857338 0.468321
vt 0.857338 0.354266
vt 0.860508 0.354266
vt 0.860508 0.360682
vt 0.857338 0.360682
vt 0.687221 0.063409
vt 0.680946 0.063422
vt 0.402320 0.727701
vt 0.405490 0.727740
vt 0.405490 0.734120
vt 0.402320 0.734117
vt 0.755112 0.354270
vt 0.758282 0.354266
vt 0.758282 0.360660
vt 0.755112 0.360686
vt 0.848246 0.721295
vt 0.845076 0.721295
vt 0.845076 0.714879
vt 0.848246 0.714879
vt 0.272522 0.809936
vt 0.269352 0.809931
vt 0.269352 0.803520
vt 0.272522 0.803520
vt 0.687225 0.069812
vt 0.680946 0.069812
vt 0.640685 0.936565
vt 0.637514 0.936565
vt 0.637514 0.930162
vt 0.640685 0.930149
vt 0.519917 0.942964
vt 0.523087 0.942990
vt 0.523087 0.949380
vt 0.519917 0.949380
vt 0.746020 0.930153
vt 0.746020 0.936569
vt 0.742849 0.936569
vt 0.742849 0.930153
vt 0.637514 0.828930
vt 0.637514 0.822514
vt 0.640685 0.822514
vt 0.640685 0.828930
vt 0.680946 0.171031
vt 0.687225 0.171031
vt 0.687225 0.177451
vt 0.680946 0.177451
vt 0.049528 0.784543
vt 0.049528 0.778127
vt 0.052698 0.778127
vt 0.052698 0.784547
vt 0.786281 0.057029
vt 0.786281 0.050613
vt 0.789452 0.050609
vt 0.789452 0.057029
vt 0.888507 0.164664
vt 0.888507 0.158248
vt 0.891678 0.158248
vt 0.891678 0.164664
vt 0.170296 0.803520
vt 0.170296 0.809936
vt 0.167125 0.809931
vt 0.167125 0.803520
vt 0.643793 0.721295
vt 0.637519 0.721282
vt 0.637514 0.714879
vt 0.643793 0.714879
vt 0.167125 0.917571
vt 0.167125 0.911155
vt 0.170296 0.911155
vt 0.170296 0.917571
vt 0.405490 0.942974
vt 0.405490 0.949391
vt 0.402320 0.949391
vt 0.402320 0.942988
vt 0.269352 0.917566
vt 0.269352 0.911155
vt 0.272522 0.911155
vt 0.272522 0.917571
vt 0.405490 0.835339
vt 0.405490 0.841755
vt 0.402320 0.841755
vt 0.402320 0.835339
vt 0.687225 0.183844
vt 0.680951 0.183831
vt 0.755112 0.468324
vt 0.755112 0.461908
vt 0.758282 0.461905
vt 0.758282 0.468285
vt 0.746020 0.714882
vt 0.746020 0.721299
vt 0.742849 0.721272
vt 0.742849 0.714879
vt 0.860508 0.569540
vt 0.860508 0.575956
vt 0.857338 0.575956
vt 0.857338 0.569540
vt 0.049528 0.892182
vt 0.049528 0.885766
vt 0.052698 0.885766
vt 0.052698 0.892177
vt 0.687225 0.190234
vt 0.680946 0.190234
vt 0.848246 0.822517
vt 0.848246 0.828934
vt 0.845076 0.828920
vt 0.845076 0.822517
vt 0.848246 0.930153
vt 0.848246 0.936569
vt 0.845076 0.936569
vt 0.845076 0.930179
vt 0.303264 0.455485
vt 0.284723 0.455485
vt 0.284723 0.411224
vt 0.303264 0.411224
vt 0.068069 0.354266
vt 0.068069 0.455485
vt 0.049528 0.455485
vt 0.049528 0.354266
vt 0.148584 0.050609
vt 0.148584 0.151828
vt 0.105268 0.151828
vt 0.105268 0.050609
vt 0.464293 0.050609
vt 0.464293 0.151828
vt 0.445752 0.151828
vt 0.445752 0.050609
vt 0.346696 0.151828
vt 0.346696 0.253047
vt 0.303380 0.253047
vt 0.303558 0.151828
vt 0.185667 0.354266
vt 0.185667 0.373135
vt 0.167125 0.373135
vt 0.167125 0.354266
vt 0.068069 0.487123
vt 0.049528 0.487123
vt 0.464293 0.183466
vt 0.445752 0.183466
vt 0.346696 0.050609
vt 0.337469 0.069568
vt 0.328230 0.069568
vt 0.328230 0.050609
vt 0.538458 0.506271
vt 0.519917 0.506271
vt 0.519917 0.480878
vt 0.538458 0.480908
vt 0.284723 0.683316
vt 0.303264 0.683323
vt 0.303264 0.702301
vt 0.284723 0.702190
vt 0.563349 0.050609
vt 0.581890 0.050609
vt 0.581890 0.076002
vt 0.563349 0.076002
vt 0.519917 0.607490
vt 0.538459 0.607490
vt 0.538459 0.626475
vt 0.519917 0.626475
vt 0.637514 0.474470
vt 0.656056 0.474470
vt 0.656056 0.493456
vt 0.637514 0.493456
vt 0.581890 0.202614
vt 0.563349 0.202614
vt 0.563349 0.177221
vt 0.581890 0.177221
vt 0.420861 0.506271
vt 0.402320 0.506271
vt 0.402320 0.480878
vt 0.420861 0.480878
vt 0.167125 0.683323
vt 0.185667 0.683316
vt 0.185667 0.702301
vt 0.167125 0.702301
vt 0.637514 0.594675
vt 0.656056 0.594675
vt 0.656056 0.613660
vt 0.637514 0.613660
vt 0.519917 0.354266
vt 0.538459 0.354296
vt 0.538459 0.379659
vt 0.519917 0.379659
vt 0.068038 0.202451
vt 0.092888 0.202451
vt 0.092888 0.215104
vt 0.068009 0.215104
vt 0.068009 0.202451
vt 0.049528 0.253047
vt 0.068009 0.233762
vt 0.068009 0.234089
vt 0.068009 0.253047
vt 0.420861 0.379659
vt 0.402320 0.379659
vt 0.402320 0.354266
vt 0.420861 0.354266
vt 0.049528 0.657923
vt 0.068069 0.657923
vt 0.068069 0.676908
vt 0.049528 0.676908
vt 0.247640 0.050609
vt 0.261498 0.088553
vt 0.247640 0.088553
vt 0.328230 0.120198
vt 0.346696 0.120191
vt 0.284723 0.556704
vt 0.303264 0.556704
vt 0.303264 0.582097
vt 0.284723 0.582097
vt 0.656056 0.373252
vt 0.637514 0.373252
vt 0.637514 0.354266
vt 0.656056 0.354266
vt 0.420861 0.626482
vt 0.402320 0.626482
vt 0.402320 0.607490
vt 0.420861 0.607497
vt 0.185667 0.582097
vt 0.167125 0.582097
vt 0.167125 0.556734
vt 0.185667 0.556704
vt 0.049528 0.215104
vt 0.049528 0.202451
vt 0.049528 0.183466
vt 0.068038 0.183466
vt 0.134736 0.215104
vt 0.148584 0.215104
vt 0.148584 0.234089
vt 0.141665 0.234089
vt 0.130118 0.215104
vt 0.130118 0.234089
vt 0.130118 0.202451
vt 0.148584 0.202451
vt 0.049528 0.151828
vt 0.130118 0.183466
vt 0.148584 0.183466
vt 0.092888 0.183466
vt 0.068038 0.151828
vt 0.092888 0.151828
vt 0.105268 0.202340
vt 0.105268 0.215104
vt 0.105268 0.253047
vt 0.105268 0.234089
vt 0.130118 0.253047
vt 0.092888 0.253047
vt 0.092888 0.234089
vt 0.148584 0.253047
vt 0.068038 0.253047
vt 0.105268 0.183466
vt 0.092888 0.050609
vt 0.068038 0.050609
vt 0.049528 0.050609
vt 0.049528 0.518760
vt 0.068069 0.518760
vt 0.068069 0.537746
vt 0.049528 0.537746
vt 0.049528 0.506108
vt 0.068069 0.506108
vt 0.445752 0.202451
vt 0.464293 0.202451
vt 0.464293 0.215104
vt 0.445752 0.215104
vt 0.247640 0.101206
vt 0.266121 0.101213
vt 0.266150 0.120191
vt 0.247640 0.120191
vt 0.266150 0.088553
vt 0.266150 0.069568
vt 0.266328 0.151828
vt 0.247640 0.151828
vt 0.328230 0.101206
vt 0.346696 0.101206
vt 0.328230 0.088553
vt 0.346696 0.088553
vt 0.346696 0.069568
vt 0.291000 0.050609
vt 0.291000 0.069568
vt 0.266150 0.050609
vt 0.303380 0.050609
vt 0.303380 0.069568
vt 0.291178 0.151828
vt 0.291000 0.253047
vt 0.266150 0.253047
vt 0.291000 0.120191
vt 0.303380 0.120198
vt 0.464293 0.253047
vt 0.445752 0.253047
vt 0.167125 0.436571
vt 0.185667 0.436571
vt 0.185667 0.455485
vt 0.167125 0.455485
vt 0.167125 0.436600
vt 0.167125 0.411178
vt 0.185667 0.411178
vt 0.167125 0.398528
vt 0.185667 0.398528
vt 0.284723 0.398574
vt 0.303264 0.398574
vt 0.284723 0.373181
vt 0.303264 0.373181
vt 0.284723 0.354266
vt 0.303264 0.354266
vt 0.247640 0.253047
vt 0.068069 0.556704
vt 0.049528 0.556704
vt 0.291000 0.088553
vt 0.291000 0.101206
vt 0.266150 0.101213
vt 0.303380 0.088553
vt 0.303380 0.101206
vn -1.0000 0.0000 0.0011
vn 1.0000 0.0000 0.0000
vn 0.0000 0.0000 -1.0000
vn 0.0000 -1.0000 0.0000
vn 0.0000 1.0000 -0.0000
vn -1.0000 0.0000 0.0000
vn 1.0000 0.0010 -0.0020
vn 0.0004 1.0000 -0.0007
vn -0.9999 -0.0010 -0.0101
vn 1.0000 0.0000 0.0011
vn -0.0004 -1.0000 -0.0007
vn 1.0000 0.0010 -0.0061
vn 0.0004 -1.0000 -0.0007
vn -1.0000 0.0000 -0.0011
vn 0.0000 0.0000 1.0000
vn 1.0000 0.0010 0.0020
vn 0.0004 1.0000 0.0007
vn -0.9999 -0.0010 0.0101
vn 1.0000 0.0000 -0.0011
vn -0.0004 -1.0000 0.0007
vn 1.0000 0.0010 0.0061
vn 0.0004 -1.0000 0.0007
vn 1.0000 0.0009 -0.0048
vn -1.0000 -0.0009 0.0048
vn 1.0000 -0.0009 -0.0081
vn -1.0000 0.0009 0.0081
vn -0.0001 -1.0000 -0.0002
vn -0.0000 1.0000 0.0004
vn 1.0000 0.0000 -0.0016
vn 0.0022 -1.0000 -0.0029
vn 1.0000 -0.0008 0.0008
vn 1.0000 -0.0009 -0.0027
vn 1.0000 -0.0009 -0.0042
vn 1.0000 -0.0009 -0.0057
vn -1.0000 0.0009 0.0042
vn -1.0000 0.0009 0.0057
vn -1.0000 0.0009 0.0018
vn 1.0000 -0.0009 -0.0009
usemtl Material.003
s off
f 1/1/1 3/2/1 4/3/1 2/4/1
f 7/5/2 5/6/2 6/7/2 8/8/2
f 5/9/3 1/10/3 2/11/3 6/12/3
f 3/13/4 1/14/4 5/15/4 7/16/4
f 8/17/5 6/18/5 2/19/5 4/20/5
f 9/21/6 11/22/6 12/23/6 10/24/6
f 15/25/7 13/26/7 14/27/7 16/28/7
f 13/29/3 9/30/3 10/31/3 14/32/3
f 11/33/4 9/34/4 13/35/4 15/36/4
f 16/37/8 14/38/8 10/39/8 12/40/8
f 14/41/9 18/42/9 19/43/9 17/44/9
f 20/45/10 1/46/10 2/47/10 21/48/10
f 1/10/3 14/49/3 17/50/3 2/11/3
f 18/51/11 14/52/11 1/53/11 20/54/11
f 21/55/5 2/56/5 17/57/5 19/58/5
f 22/59/6 24/60/6 25/61/6 23/62/6
f 26/63/12 14/64/12 17/65/12 27/66/12
f 14/49/3 22/67/3 23/68/3 17/50/3
f 24/69/13 22/70/13 14/71/13 26/72/13
f 27/73/5 17/74/5 23/75/5 25/76/5
f 28/77/14 29/78/14 31/79/14 30/80/14
f 34/81/2 35/82/2 33/83/2 32/84/2
f 32/85/15 33/86/15 29/87/15 28/88/15
f 30/89/4 34/90/4 32/91/4 28/92/4
f 35/93/5 31/94/5 29/95/5 33/96/5
f 36/97/6 37/98/6 39/99/6 38/100/6
f 42/101/16 43/102/16 41/103/16 40/104/16
f 40/105/15 41/106/15 37/107/15 36/108/15
f 38/109/4 42/110/4 40/111/4 36/112/4
f 43/113/17 39/114/17 37/115/17 41/116/17
f 41/117/18 44/118/18 46/119/18 45/120/18
f 47/121/19 48/122/19 29/123/19 28/124/19
f 28/88/15 29/87/15 44/125/15 41/126/15
f 45/127/20 47/128/20 28/129/20 41/130/20
f 48/131/5 46/132/5 44/133/5 29/134/5
f 49/135/6 50/136/6 52/137/6 51/138/6
f 53/139/21 54/140/21 44/141/21 41/142/21
f 41/126/15 44/125/15 50/143/15 49/144/15
f 51/145/22 53/146/22 41/147/22 49/148/22
f 54/149/5 52/150/5 50/151/5 44/152/5
f 55/153/4 56/154/4 119/155/4 135/156/4
f 55/157/23 59/158/23 60/159/23 56/160/23
f 56/161/15 60/162/15 118/163/15 119/164/15
f 57/165/24 62/166/24 61/167/24 58/168/24
f 59/169/3 55/170/3 135/171/3 136/172/3
f 63/173/5 132/174/5 114/175/5 64/176/5
f 59/158/25 124/177/25 111/178/25 60/159/25
f 62/166/26 110/179/26 128/180/26 61/167/26
f 63/181/3 141/182/3 98/183/3 132/184/3
f 83/185/27 82/186/27 78/187/27 104/188/27
f 93/189/2 102/190/2 90/191/2 91/192/2
f 102/193/28 93/194/28 95/195/28 103/196/28
f 100/197/29 71/198/29 69/199/29 101/200/29
f 80/201/6 81/202/6 82/203/6 83/204/6
f 98/205/4 99/206/4 86/207/4 87/208/4
f 77/209/5 76/210/5 81/211/5 80/212/5
f 103/213/6 95/214/6 97/215/6 96/216/6
f 88/217/6 89/218/6 99/219/6 98/220/6
f 71/221/5 100/222/5 74/223/5 75/224/5
f 78/225/15 82/226/15 74/227/15 70/228/15 145/229/15
f 65/230/15 68/231/15 67/232/15 115/233/15
f 96/234/30 97/235/30 91/236/30 90/237/30
f 75/238/6 74/239/6 72/240/6 73/241/6
f 66/242/3 127/243/3 126/244/3
f 59/169/3 94/245/3 124/246/3
f 85/247/5 84/248/5 89/249/5 88/250/5
f 84/251/2 85/252/2 87/253/2 86/254/2
f 76/255/31 77/256/31 104/257/31 78/258/31
f 73/259/4 72/260/4 101/261/4 69/262/4
f 105/263/15 70/228/15 68/231/15 65/230/15
f 106/264/15 110/265/15 76/266/15 78/225/15 145/229/15
f 108/267/15 107/268/15 142/269/15 143/270/15
f 89/271/15 108/267/15 143/270/15 99/272/15
f 97/273/15 109/274/15 107/268/15 108/267/15
f 76/266/15 110/265/15 62/275/15
f 95/276/15 111/277/15 109/274/15 97/273/15
f 81/278/15 76/266/15 116/279/15 117/280/15
f 74/227/15 82/226/15 91/281/15 84/282/15
f 84/282/15 91/281/15 97/273/15 89/271/15
f 112/283/15 86/284/15 99/272/15 114/285/15
f 113/286/15 72/287/15 86/284/15 112/283/15
f 114/285/15 99/272/15 64/288/15
f 115/233/15 67/232/15 72/287/15 113/286/15 137/289/15
f 116/279/15 76/266/15 62/275/15
f 117/280/15 118/163/15 93/290/15 81/278/15
f 93/290/15 118/163/15 95/276/15
f 119/164/15 118/163/15 117/280/15 120/291/15
f 120/291/15 117/280/15 116/279/15 121/292/15
f 121/292/15 116/279/15 62/275/15 57/293/15
f 107/294/32 122/295/32 140/296/32 142/297/32
f 109/298/33 123/299/33 122/295/33 107/294/33
f 111/178/34 124/177/34 123/299/34 109/298/34
f 125/300/35 106/301/35 105/302/35 126/303/35
f 125/304/3 79/305/3 77/306/3 128/307/3
f 126/244/3 127/243/3 79/305/3 125/304/3
f 71/308/3 127/243/3 66/242/3 69/309/3
f 128/307/3 77/306/3 139/310/3 61/311/3
f 124/246/3 94/245/3 96/312/3 123/313/3
f 123/313/3 96/312/3 88/314/3 122/315/3
f 122/315/3 88/314/3 141/182/3 140/316/3
f 129/317/3 73/318/3 69/309/3 130/319/3
f 130/319/3 69/309/3 66/242/3
f 131/320/3 87/321/3 73/318/3 129/317/3
f 132/184/3 98/183/3 87/321/3 131/320/3
f 134/322/3 133/323/3 138/324/3 139/310/3
f 134/322/3 80/325/3 92/326/3 136/172/3
f 136/172/3 92/326/3 94/245/3
f 136/172/3 135/171/3 133/323/3 134/322/3
f 128/180/36 110/179/36 106/301/36 125/300/36
f 126/303/37 105/302/37 65/327/37 66/328/37
f 137/329/5 130/330/5 66/331/5 65/332/5 115/333/5
f 113/334/5 129/335/5 130/330/5 137/329/5
f 112/336/5 131/337/5 129/335/5 113/334/5
f 114/175/5 132/174/5 131/337/5 112/336/5
f 135/156/4 119/155/4 120/338/4 133/339/4
f 133/339/4 120/338/4 121/340/4 138/341/4
f 138/341/4 121/340/4 57/342/4 58/343/4
f 139/310/3 138/324/3 58/344/3 61/311/3
f 139/310/3 77/306/3 80/325/3 134/322/3
f 140/316/3 141/182/3 63/181/3
f 98/183/3 141/182/3 88/314/3
f 142/297/38 140/296/38 63/345/38 64/346/38
f 99/272/15 143/270/15 64/288/15
f 143/270/15 142/269/15 64/288/15
f 75/347/3 83/348/3 144/349/3 71/308/3
f 85/350/3 90/351/3 83/348/3 75/347/3
f 88/314/3 96/312/3 90/351/3 85/350/3
f 71/308/3 144/349/3 79/305/3 127/243/3
f 83/348/3 90/351/3 92/326/3 80/325/3
f 73/318/3 87/321/3 85/350/3 75/347/3
f 145/229/15 70/228/15 105/263/15 106/264/15
f 89/271/15 97/273/15 108/267/15
f 86/284/15 72/287/15 74/227/15 84/282/15
f 95/276/15 60/162/15 111/277/15
f 95/276/15 118/163/15 60/162/15
f 94/245/3 59/169/3 136/172/3
f 91/281/15 82/226/15 81/278/15 93/290/15
l 83 91
