# Blender v2.78 (sub 0) OBJ File: ''
# www.blender.org
mtllib Snowball.mtl
o polygon0
v 0.043301 -0.086602 -0.025000
v 0.025000 -0.086602 -0.043301
v 0.012939 -0.096592 -0.022412
v 0.022412 -0.096592 -0.012939
v 0.000000 -0.086602 -0.050000
v 0.000000 -0.096592 -0.025884
v -0.025000 -0.086602 -0.043301
v -0.012939 -0.096592 -0.022412
v -0.043301 -0.086602 -0.025000
v -0.022412 -0.096592 -0.012939
v -0.050000 -0.086602 -0.000000
v -0.025884 -0.096592 -0.000000
v -0.043301 -0.086602 0.025000
v -0.022412 -0.096592 0.012939
v -0.025000 -0.086602 0.043301
v -0.012939 -0.096592 0.022412
v 0.000000 -0.086602 0.050000
v 0.000000 -0.096592 0.025884
v 0.025000 -0.086602 0.043301
v 0.012939 -0.096592 0.022412
v 0.043301 -0.086602 0.025000
v 0.022412 -0.096592 0.012939
v 0.050000 -0.086602 -0.000000
v 0.025884 -0.096592 -0.000000
v 0.061235 -0.070713 -0.035356
v 0.035356 -0.070713 -0.061235
v 0.000000 -0.070713 -0.070713
v -0.035356 -0.070713 -0.061235
v -0.061235 -0.070713 -0.035356
v -0.070713 -0.070713 -0.000000
v -0.061235 -0.070713 0.035356
v -0.035356 -0.070713 0.061235
v 0.000000 -0.070713 0.070713
v 0.035356 -0.070713 0.061235
v 0.061235 -0.070713 0.035356
v 0.070713 -0.070713 -0.000000
v 0.075000 -0.050000 -0.043301
v 0.043301 -0.050000 -0.075000
v 0.000000 -0.050000 -0.086602
v -0.043301 -0.050000 -0.075000
v -0.075000 -0.050000 -0.043301
v -0.086602 -0.050000 -0.000000
v -0.075000 -0.050000 0.043301
v -0.043301 -0.050000 0.075000
v 0.000000 -0.050000 0.086602
v 0.043301 -0.050000 0.075000
v 0.075000 -0.050000 0.043301
v 0.086602 -0.050000 -0.000000
v 0.083652 -0.025884 -0.048296
v 0.048296 -0.025884 -0.083652
v 0.000000 -0.025884 -0.096592
v -0.048296 -0.025884 -0.083652
v -0.083652 -0.025884 -0.048296
v -0.096592 -0.025884 -0.000000
v -0.083652 -0.025884 0.048296
v -0.048296 -0.025884 0.083652
v 0.000000 -0.025884 0.096592
v 0.048296 -0.025884 0.083652
v 0.083652 -0.025884 0.048296
v 0.096592 -0.025884 -0.000000
v 0.086602 0.000000 -0.050000
v 0.050000 0.000000 -0.086602
v 0.000000 0.000000 -0.100000
v -0.050000 0.000000 -0.086602
v -0.086602 0.000000 -0.050000
v -0.100000 0.000000 0.000000
v -0.086602 -0.000000 0.050000
v -0.050000 -0.000000 0.086602
v 0.000000 -0.000000 0.100000
v 0.050000 -0.000000 0.086602
v 0.086602 -0.000000 0.050000
v 0.100000 0.000000 0.000000
v 0.083652 0.025884 -0.048296
v 0.048296 0.025884 -0.083652
v 0.000000 0.025884 -0.096592
v -0.048296 0.025884 -0.083652
v -0.083652 0.025884 -0.048296
v -0.096592 0.025884 0.000000
v -0.083652 0.025884 0.048296
v -0.048296 0.025884 0.083652
v 0.000000 0.025884 0.096592
v 0.048296 0.025884 0.083652
v 0.083652 0.025884 0.048296
v 0.096592 0.025884 0.000000
v 0.075000 0.050000 -0.043301
v 0.043301 0.050000 -0.075000
v 0.000000 0.050000 -0.086602
v -0.043301 0.050000 -0.075000
v -0.075000 0.050000 -0.043301
v -0.086602 0.050000 0.000000
v -0.075000 0.050000 0.043301
v -0.043301 0.050000 0.075000
v 0.000000 0.050000 0.086602
v 0.043301 0.050000 0.075000
v 0.075000 0.050000 0.043301
v 0.086602 0.050000 0.000000
v 0.061235 0.070713 -0.035356
v 0.035356 0.070713 -0.061235
v 0.000000 0.070713 -0.070713
v -0.035356 0.070713 -0.061235
v -0.061235 0.070713 -0.035356
v -0.070713 0.070713 0.000000
v -0.061235 0.070713 0.035356
v -0.035356 0.070713 0.061235
v 0.000000 0.070713 0.070713
v 0.035356 0.070713 0.061235
v 0.061235 0.070713 0.035356
v 0.070713 0.070713 0.000000
v 0.043301 0.086602 -0.025000
v 0.025000 0.086602 -0.043301
v 0.000000 0.086602 -0.050000
v -0.025000 0.086602 -0.043301
v -0.043301 0.086602 -0.025000
v -0.050000 0.086602 0.000000
v -0.043301 0.086602 0.025000
v -0.025000 0.086602 0.043301
v 0.000000 0.086602 0.050000
v 0.025000 0.086602 0.043301
v 0.043301 0.086602 0.025000
v 0.050000 0.086602 0.000000
v 0.022412 0.096592 -0.012939
v 0.012939 0.096592 -0.022412
v 0.000000 0.096592 -0.025884
v -0.012939 0.096592 -0.022412
v -0.022412 0.096592 -0.012939
v -0.025884 0.096592 0.000000
v -0.022412 0.096592 0.012939
v -0.012939 0.096592 0.022412
v 0.000000 0.096592 0.025884
v 0.012939 0.096592 0.022412
v 0.022412 0.096592 0.012939
v 0.025884 0.096592 0.000000
v 0.000000 -0.100000 -0.000000
v 0.000000 0.100000 0.000000
vt 0.0000 0.1667
vt 0.0833 0.0833
vt 0.0833 0.1667
vt 0.0000 0.0833
vt 0.1667 0.0833
vt 0.1667 0.1667
vt 0.2500 0.0833
vt 0.2500 0.1667
vt 0.3333 0.0833
vt 0.3333 0.1667
vt 0.4167 0.0833
vt 0.4167 0.1667
vt 0.5000 0.0833
vt 0.5000 0.1667
vt 0.5833 0.0833
vt 0.5833 0.1667
vt 0.6667 0.0833
vt 0.6667 0.1667
vt 0.7500 0.0833
vt 0.7500 0.1667
vt 0.8333 0.0833
vt 0.8333 0.1667
vt 0.9167 0.0833
vt 0.9167 0.1667
vt 1.0000 0.0833
vt 1.0000 0.1667
vt 0.0000 0.2500
vt 0.0833 0.2500
vt 0.1667 0.2500
vt 0.2500 0.2500
vt 0.3333 0.2500
vt 0.4167 0.2500
vt 0.5000 0.2500
vt 0.5833 0.2500
vt 0.6667 0.2500
vt 0.7500 0.2500
vt 0.8333 0.2500
vt 0.9167 0.2500
vt 1.0000 0.2500
vt 0.0000 0.3333
vt 0.0833 0.3333
vt 0.1667 0.3333
vt 0.2500 0.3333
vt 0.3333 0.3333
vt 0.4167 0.3333
vt 0.5000 0.3333
vt 0.5833 0.3333
vt 0.6667 0.3333
vt 0.7500 0.3333
vt 0.8333 0.3333
vt 0.9167 0.3333
vt 1.0000 0.3333
vt 0.0000 0.4167
vt 0.0833 0.4167
vt 0.1667 0.4167
vt 0.2500 0.4167
vt 0.3333 0.4167
vt 0.4167 0.4167
vt 0.5000 0.4167
vt 0.5833 0.4167
vt 0.6667 0.4167
vt 0.7500 0.4167
vt 0.8333 0.4167
vt 0.9167 0.4167
vt 1.0000 0.4167
vt 0.0000 0.5000
vt 0.0833 0.5000
vt 0.1667 0.5000
vt 0.2500 0.5000
vt 0.3333 0.5000
vt 0.4167 0.5000
vt 0.5000 0.5000
vt 0.5833 0.5000
vt 0.6667 0.5000
vt 0.7500 0.5000
vt 0.8333 0.5000
vt 0.9167 0.5000
vt 1.0000 0.5000
vt 0.0000 0.5833
vt 0.0833 0.5833
vt 0.1667 0.5833
vt 0.2500 0.5833
vt 0.3333 0.5833
vt 0.4167 0.5833
vt 0.5000 0.5833
vt 0.5833 0.5833
vt 0.6667 0.5833
vt 0.7500 0.5833
vt 0.8333 0.5833
vt 0.9167 0.5833
vt 1.0000 0.5833
vt 0.0000 0.6667
vt 0.0833 0.6667
vt 0.1667 0.6667
vt 0.2500 0.6667
vt 0.3333 0.6667
vt 0.4167 0.6667
vt 0.5000 0.6667
vt 0.5833 0.6667
vt 0.6667 0.6667
vt 0.7500 0.6667
vt 0.8333 0.6667
vt 0.9167 0.6667
vt 1.0000 0.6667
vt 0.0000 0.7500
vt 0.0833 0.7500
vt 0.1667 0.7500
vt 0.2500 0.7500
vt 0.3333 0.7500
vt 0.4167 0.7500
vt 0.5000 0.7500
vt 0.5833 0.7500
vt 0.6667 0.7500
vt 0.7500 0.7500
vt 0.8333 0.7500
vt 0.9167 0.7500
vt 1.0000 0.7500
vt 0.0000 0.8333
vt 0.0833 0.8333
vt 0.1667 0.8333
vt 0.2500 0.8333
vt 0.3333 0.8333
vt 0.4167 0.8333
vt 0.5000 0.8333
vt 0.5833 0.8333
vt 0.6667 0.8333
vt 0.7500 0.8333
vt 0.8333 0.8333
vt 0.9167 0.8333
vt 1.0000 0.8333
vt 0.0000 0.9167
vt 0.0833 0.9167
vt 0.1667 0.9167
vt 0.2500 0.9167
vt 0.3333 0.9167
vt 0.4167 0.9167
vt 0.5000 0.9167
vt 0.5833 0.9167
vt 0.6667 0.9167
vt 0.7500 0.9167
vt 0.8333 0.9167
vt 0.9167 0.9167
vt 1.0000 0.9167
vt 0.0417 0.0000
vt 0.1250 0.0000
vt 0.2083 0.0000
vt 0.2917 0.0000
vt 0.3750 0.0000
vt 0.4583 0.0000
vt 0.5417 0.0000
vt 0.6250 0.0000
vt 0.7083 0.0000
vt 0.7917 0.0000
vt 0.8750 0.0000
vt 0.9583 0.0000
vt 0.0417 1.0000
vt 0.1250 1.0000
vt 0.2083 1.0000
vt 0.2917 1.0000
vt 0.3750 1.0000
vt 0.4583 1.0000
vt 0.5417 1.0000
vt 0.6250 1.0000
vt 0.7083 1.0000
vt 0.7917 1.0000
vt 0.8750 1.0000
vt 0.9583 1.0000
vn 0.4467 -0.8567 -0.2579
vn 0.1395 -0.9603 -0.2415
vn 0.2579 -0.8567 -0.4468
vn 0.2415 -0.9603 -0.1394
vn 0.0000 -0.9603 -0.2789
vn 0.0000 -0.8567 -0.5159
vn -0.1394 -0.9603 -0.2415
vn -0.2579 -0.8567 -0.4467
vn -0.2415 -0.9603 -0.1395
vn -0.4467 -0.8567 -0.2579
vn -0.2789 -0.9603 0.0000
vn -0.5159 -0.8567 0.0000
vn -0.2415 -0.9603 0.1394
vn -0.4467 -0.8567 0.2579
vn -0.1395 -0.9603 0.2415
vn -0.2579 -0.8567 0.4467
vn 0.0000 -0.9603 0.2789
vn 0.0000 -0.8567 0.5159
vn 0.1394 -0.9603 0.2415
vn 0.2579 -0.8567 0.4467
vn 0.2415 -0.9603 0.1395
vn 0.4467 -0.8567 0.2579
vn 0.2789 -0.9603 0.0000
vn 0.5159 -0.8567 0.0000
vn 0.6214 -0.6964 -0.3588
vn 0.3588 -0.6965 -0.6214
vn 0.0000 -0.6964 -0.7176
vn -0.3588 -0.6964 -0.6214
vn -0.6214 -0.6965 -0.3588
vn -0.7176 -0.6964 0.0000
vn -0.6214 -0.6964 0.3588
vn -0.3588 -0.6965 0.6214
vn 0.0000 -0.6964 0.7176
vn 0.3588 -0.6964 0.6214
vn 0.6214 -0.6965 0.3588
vn 0.7176 -0.6964 0.0000
vn 0.7545 -0.4909 -0.4356
vn 0.4356 -0.4909 -0.7545
vn 0.0000 -0.4908 -0.8712
vn -0.4356 -0.4909 -0.7545
vn -0.7545 -0.4909 -0.4356
vn -0.8712 -0.4908 0.0000
vn -0.7545 -0.4909 0.4356
vn -0.4356 -0.4909 0.7545
vn 0.0000 -0.4908 0.8712
vn 0.4356 -0.4909 0.7545
vn 0.7545 -0.4909 0.4356
vn 0.8712 -0.4908 0.0000
vn 0.8377 -0.2536 -0.4836
vn 0.4836 -0.2536 -0.8377
vn 0.0000 -0.2536 -0.9673
vn -0.4836 -0.2536 -0.8377
vn -0.8377 -0.2536 -0.4836
vn -0.9673 -0.2536 0.0000
vn -0.8377 -0.2536 0.4836
vn -0.4836 -0.2536 0.8377
vn 0.0000 -0.2536 0.9673
vn 0.4836 -0.2536 0.8377
vn 0.8377 -0.2536 0.4836
vn 0.9673 -0.2536 0.0000
vn 0.8660 0.0000 -0.5000
vn 0.5000 0.0000 -0.8660
vn 0.0000 0.0000 -1.0000
vn -0.5000 0.0000 -0.8660
vn -0.8660 0.0000 -0.5000
vn -1.0000 0.0000 0.0000
vn -0.8660 0.0000 0.5000
vn -0.5000 0.0000 0.8660
vn 0.0000 0.0000 1.0000
vn 0.5000 0.0000 0.8660
vn 0.8660 0.0000 0.5000
vn 1.0000 0.0000 0.0000
vn 0.8377 0.2536 -0.4836
vn 0.4836 0.2536 -0.8377
vn 0.0000 0.2536 -0.9673
vn -0.4836 0.2536 -0.8377
vn -0.8377 0.2536 -0.4836
vn -0.9673 0.2536 0.0000
vn -0.8377 0.2536 0.4836
vn -0.4836 0.2536 0.8377
vn 0.0000 0.2536 0.9673
vn 0.4836 0.2536 0.8377
vn 0.8377 0.2536 0.4836
vn 0.9673 0.2536 0.0000
vn 0.7545 0.4909 -0.4356
vn 0.4356 0.4909 -0.7545
vn 0.0000 0.4908 -0.8712
vn -0.4356 0.4909 -0.7545
vn -0.7545 0.4909 -0.4356
vn -0.8712 0.4908 0.0000
vn -0.7545 0.4909 0.4356
vn -0.4356 0.4909 0.7545
vn 0.0000 0.4908 0.8712
vn 0.4356 0.4909 0.7545
vn 0.7545 0.4909 0.4356
vn 0.8712 0.4908 0.0000
vn 0.6214 0.6965 -0.3588
vn 0.3588 0.6964 -0.6214
vn 0.0000 0.6964 -0.7176
vn -0.3588 0.6965 -0.6214
vn -0.6214 0.6964 -0.3588
vn -0.7176 0.6964 0.0000
vn -0.6214 0.6965 0.3588
vn -0.3588 0.6964 0.6214
vn 0.0000 0.6964 0.7176
vn 0.3588 0.6965 0.6214
vn 0.6214 0.6964 0.3588
vn 0.7176 0.6964 0.0000
vn 0.4467 0.8567 -0.2579
vn 0.2579 0.8567 -0.4467
vn 0.0000 0.8567 -0.5159
vn -0.2579 0.8567 -0.4467
vn -0.4467 0.8567 -0.2579
vn -0.5159 0.8567 0.0000
vn -0.4467 0.8567 0.2579
vn -0.2579 0.8567 0.4467
vn 0.0000 0.8567 0.5159
vn 0.2579 0.8567 0.4468
vn 0.4467 0.8567 0.2579
vn 0.5159 0.8567 0.0000
vn 0.2415 0.9603 -0.1395
vn 0.1394 0.9603 -0.2415
vn 0.0000 0.9603 -0.2789
vn -0.1395 0.9603 -0.2415
vn -0.2415 0.9603 -0.1394
vn -0.2789 0.9603 0.0000
vn -0.2415 0.9603 0.1395
vn -0.1394 0.9603 0.2415
vn 0.0000 0.9603 0.2789
vn 0.1395 0.9603 0.2415
vn 0.2415 0.9603 0.1394
vn 0.2789 0.9603 0.0000
vn 0.0000 -1.0000 0.0000
vn 0.0000 1.0000 0.0000
usemtl lambert33
s 1
f 1/1/1 3/2/2 2/3/3
f 1/1/1 4/4/4 3/2/2
f 2/3/3 6/5/5 5/6/6
f 2/3/3 3/2/2 6/5/5
f 5/6/6 8/7/7 7/8/8
f 5/6/6 6/5/5 8/7/7
f 7/8/8 10/9/9 9/10/10
f 7/8/8 8/7/7 10/9/9
f 9/10/10 12/11/11 11/12/12
f 9/10/10 10/9/9 12/11/11
f 11/12/12 14/13/13 13/14/14
f 11/12/12 12/11/11 14/13/13
f 13/14/14 16/15/15 15/16/16
f 13/14/14 14/13/13 16/15/15
f 15/16/16 18/17/17 17/18/18
f 15/16/16 16/15/15 18/17/17
f 17/18/18 20/19/19 19/20/20
f 17/18/18 18/17/17 20/19/19
f 19/20/20 22/21/21 21/22/22
f 19/20/20 20/19/19 22/21/21
f 21/22/22 24/23/23 23/24/24
f 21/22/22 22/21/21 24/23/23
f 23/24/24 4/25/4 1/26/1
f 23/24/24 24/23/23 4/25/4
f 25/27/25 2/3/3 26/28/26
f 25/27/25 1/1/1 2/3/3
f 26/28/26 5/6/6 27/29/27
f 26/28/26 2/3/3 5/6/6
f 27/29/27 7/8/8 28/30/28
f 27/29/27 5/6/6 7/8/8
f 28/30/28 9/10/10 29/31/29
f 28/30/28 7/8/8 9/10/10
f 29/31/29 11/12/12 30/32/30
f 29/31/29 9/10/10 11/12/12
f 30/32/30 13/14/14 31/33/31
f 30/32/30 11/12/12 13/14/14
f 31/33/31 15/16/16 32/34/32
f 31/33/31 13/14/14 15/16/16
f 32/34/32 17/18/18 33/35/33
f 32/34/32 15/16/16 17/18/18
f 33/35/33 19/20/20 34/36/34
f 33/35/33 17/18/18 19/20/20
f 34/36/34 21/22/22 35/37/35
f 34/36/34 19/20/20 21/22/22
f 35/37/35 23/24/24 36/38/36
f 35/37/35 21/22/22 23/24/24
f 36/38/36 1/26/1 25/39/25
f 36/38/36 23/24/24 1/26/1
f 37/40/37 26/28/26 38/41/38
f 37/40/37 25/27/25 26/28/26
f 38/41/38 27/29/27 39/42/39
f 38/41/38 26/28/26 27/29/27
f 39/42/39 28/30/28 40/43/40
f 39/42/39 27/29/27 28/30/28
f 40/43/40 29/31/29 41/44/41
f 40/43/40 28/30/28 29/31/29
f 41/44/41 30/32/30 42/45/42
f 41/44/41 29/31/29 30/32/30
f 42/45/42 31/33/31 43/46/43
f 42/45/42 30/32/30 31/33/31
f 43/46/43 32/34/32 44/47/44
f 43/46/43 31/33/31 32/34/32
f 44/47/44 33/35/33 45/48/45
f 44/47/44 32/34/32 33/35/33
f 45/48/45 34/36/34 46/49/46
f 45/48/45 33/35/33 34/36/34
f 46/49/46 35/37/35 47/50/47
f 46/49/46 34/36/34 35/37/35
f 47/50/47 36/38/36 48/51/48
f 47/50/47 35/37/35 36/38/36
f 48/51/48 25/39/25 37/52/37
f 48/51/48 36/38/36 25/39/25
f 49/53/49 38/41/38 50/54/50
f 49/53/49 37/40/37 38/41/38
f 50/54/50 39/42/39 51/55/51
f 50/54/50 38/41/38 39/42/39
f 51/55/51 40/43/40 52/56/52
f 51/55/51 39/42/39 40/43/40
f 52/56/52 41/44/41 53/57/53
f 52/56/52 40/43/40 41/44/41
f 53/57/53 42/45/42 54/58/54
f 53/57/53 41/44/41 42/45/42
f 54/58/54 43/46/43 55/59/55
f 54/58/54 42/45/42 43/46/43
f 55/59/55 44/47/44 56/60/56
f 55/59/55 43/46/43 44/47/44
f 56/60/56 45/48/45 57/61/57
f 56/60/56 44/47/44 45/48/45
f 57/61/57 46/49/46 58/62/58
f 57/61/57 45/48/45 46/49/46
f 58/62/58 47/50/47 59/63/59
f 58/62/58 46/49/46 47/50/47
f 59/63/59 48/51/48 60/64/60
f 59/63/59 47/50/47 48/51/48
f 60/64/60 37/52/37 49/65/49
f 60/64/60 48/51/48 37/52/37
f 61/66/61 50/54/50 62/67/62
f 61/66/61 49/53/49 50/54/50
f 62/67/62 51/55/51 63/68/63
f 62/67/62 50/54/50 51/55/51
f 63/68/63 52/56/52 64/69/64
f 63/68/63 51/55/51 52/56/52
f 64/69/64 53/57/53 65/70/65
f 64/69/64 52/56/52 53/57/53
f 65/70/65 54/58/54 66/71/66
f 65/70/65 53/57/53 54/58/54
f 66/71/66 55/59/55 67/72/67
f 66/71/66 54/58/54 55/59/55
f 67/72/67 56/60/56 68/73/68
f 67/72/67 55/59/55 56/60/56
f 68/73/68 57/61/57 69/74/69
f 68/73/68 56/60/56 57/61/57
f 69/74/69 58/62/58 70/75/70
f 69/74/69 57/61/57 58/62/58
f 70/75/70 59/63/59 71/76/71
f 70/75/70 58/62/58 59/63/59
f 71/76/71 60/64/60 72/77/72
f 71/76/71 59/63/59 60/64/60
f 72/77/72 49/65/49 61/78/61
f 72/77/72 60/64/60 49/65/49
f 73/79/73 62/67/62 74/80/74
f 73/79/73 61/66/61 62/67/62
f 74/80/74 63/68/63 75/81/75
f 74/80/74 62/67/62 63/68/63
f 75/81/75 64/69/64 76/82/76
f 75/81/75 63/68/63 64/69/64
f 76/82/76 65/70/65 77/83/77
f 76/82/76 64/69/64 65/70/65
f 77/83/77 66/71/66 78/84/78
f 77/83/77 65/70/65 66/71/66
f 78/84/78 67/72/67 79/85/79
f 78/84/78 66/71/66 67/72/67
f 79/85/79 68/73/68 80/86/80
f 79/85/79 67/72/67 68/73/68
f 80/86/80 69/74/69 81/87/81
f 80/86/80 68/73/68 69/74/69
f 81/87/81 70/75/70 82/88/82
f 81/87/81 69/74/69 70/75/70
f 82/88/82 71/76/71 83/89/83
f 82/88/82 70/75/70 71/76/71
f 83/89/83 72/77/72 84/90/84
f 83/89/83 71/76/71 72/77/72
f 84/90/84 61/78/61 73/91/73
f 84/90/84 72/77/72 61/78/61
f 85/92/85 74/80/74 86/93/86
f 85/92/85 73/79/73 74/80/74
f 86/93/86 75/81/75 87/94/87
f 86/93/86 74/80/74 75/81/75
f 87/94/87 76/82/76 88/95/88
f 87/94/87 75/81/75 76/82/76
f 88/95/88 77/83/77 89/96/89
f 88/95/88 76/82/76 77/83/77
f 89/96/89 78/84/78 90/97/90
f 89/96/89 77/83/77 78/84/78
f 90/97/90 79/85/79 91/98/91
f 90/97/90 78/84/78 79/85/79
f 91/98/91 80/86/80 92/99/92
f 91/98/91 79/85/79 80/86/80
f 92/99/92 81/87/81 93/100/93
f 92/99/92 80/86/80 81/87/81
f 93/100/93 82/88/82 94/101/94
f 93/100/93 81/87/81 82/88/82
f 94/101/94 83/89/83 95/102/95
f 94/101/94 82/88/82 83/89/83
f 95/102/95 84/90/84 96/103/96
f 95/102/95 83/89/83 84/90/84
f 96/103/96 73/91/73 85/104/85
f 96/103/96 84/90/84 73/91/73
f 97/105/97 86/93/86 98/106/98
f 97/105/97 85/92/85 86/93/86
f 98/106/98 87/94/87 99/107/99
f 98/106/98 86/93/86 87/94/87
f 99/107/99 88/95/88 100/108/100
f 99/107/99 87/94/87 88/95/88
f 100/108/100 89/96/89 101/109/101
f 100/108/100 88/95/88 89/96/89
f 101/109/101 90/97/90 102/110/102
f 101/109/101 89/96/89 90/97/90
f 102/110/102 91/98/91 103/111/103
f 102/110/102 90/97/90 91/98/91
f 103/111/103 92/99/92 104/112/104
f 103/111/103 91/98/91 92/99/92
f 104/112/104 93/100/93 105/113/105
f 104/112/104 92/99/92 93/100/93
f 105/113/105 94/101/94 106/114/106
f 105/113/105 93/100/93 94/101/94
f 106/114/106 95/102/95 107/115/107
f 106/114/106 94/101/94 95/102/95
f 107/115/107 96/103/96 108/116/108
f 107/115/107 95/102/95 96/103/96
f 108/116/108 85/104/85 97/117/97
f 108/116/108 96/103/96 85/104/85
f 109/118/109 98/106/98 110/119/110
f 109/118/109 97/105/97 98/106/98
f 110/119/110 99/107/99 111/120/111
f 110/119/110 98/106/98 99/107/99
f 111/120/111 100/108/100 112/121/112
f 111/120/111 99/107/99 100/108/100
f 112/121/112 101/109/101 113/122/113
f 112/121/112 100/108/100 101/109/101
f 113/122/113 102/110/102 114/123/114
f 113/122/113 101/109/101 102/110/102
f 114/123/114 103/111/103 115/124/115
f 114/123/114 102/110/102 103/111/103
f 115/124/115 104/112/104 116/125/116
f 115/124/115 103/111/103 104/112/104
f 116/125/116 105/113/105 117/126/117
f 116/125/116 104/112/104 105/113/105
f 117/126/117 106/114/106 118/127/118
f 117/126/117 105/113/105 106/114/106
f 118/127/118 107/115/107 119/128/119
f 118/127/118 106/114/106 107/115/107
f 119/128/119 108/116/108 120/129/120
f 119/128/119 107/115/107 108/116/108
f 120/129/120 97/117/97 109/130/109
f 120/129/120 108/116/108 97/117/97
f 121/131/121 110/119/110 122/132/122
f 121/131/121 109/118/109 110/119/110
f 122/132/122 111/120/111 123/133/123
f 122/132/122 110/119/110 111/120/111
f 123/133/123 112/121/112 124/134/124
f 123/133/123 111/120/111 112/121/112
f 124/134/124 113/122/113 125/135/125
f 124/134/124 112/121/112 113/122/113
f 125/135/125 114/123/114 126/136/126
f 125/135/125 113/122/113 114/123/114
f 126/136/126 115/124/115 127/137/127
f 126/136/126 114/123/114 115/124/115
f 127/137/127 116/125/116 128/138/128
f 127/137/127 115/124/115 116/125/116
f 128/138/128 117/126/117 129/139/129
f 128/138/128 116/125/116 117/126/117
f 129/139/129 118/127/118 130/140/130
f 129/139/129 117/126/117 118/127/118
f 130/140/130 119/128/119 131/141/131
f 130/140/130 118/127/118 119/128/119
f 131/141/131 120/129/120 132/142/132
f 131/141/131 119/128/119 120/129/120
f 132/142/132 109/130/109 121/143/121
f 132/142/132 120/129/120 109/130/109
f 3/2/2 4/4/4 133/144/133
f 6/5/5 3/2/2 133/145/133
f 8/7/7 6/5/5 133/146/133
f 10/9/9 8/7/7 133/147/133
f 12/11/11 10/9/9 133/148/133
f 14/13/13 12/11/11 133/149/133
f 16/15/15 14/13/13 133/150/133
f 18/17/17 16/15/15 133/151/133
f 20/19/19 18/17/17 133/152/133
f 22/21/21 20/19/19 133/153/133
f 24/23/23 22/21/21 133/154/133
f 4/25/4 24/23/23 133/155/133
f 121/131/121 122/132/122 134/156/134
f 122/132/122 123/133/123 134/157/134
f 123/133/123 124/134/124 134/158/134
f 124/134/124 125/135/125 134/159/134
f 125/135/125 126/136/126 134/160/134
f 126/136/126 127/137/127 134/161/134
f 127/137/127 128/138/128 134/162/134
f 128/138/128 129/139/129 134/163/134
f 129/139/129 130/140/130 134/164/134
f 130/140/130 131/141/131 134/165/134
f 131/141/131 132/142/132 134/166/134
f 132/142/132 121/143/121 134/167/134
