# exported with NifSkope

mtllib Baseball Bat.mtl

# BaseballBat:0

g BaseballBat:0
usemtl Material.000001

v 1.157102972465518e-11 9.0603977653813672e-09 -0.093210726976394653
v 0.024883808568120003 0.024883823469281197 -0.085446968674659729
v 0.035191021859645844 1.5966177713266916e-08 -0.085446968674659729
v -1.5382484175319178e-09 0.035191036760807037 -0.085446968674659729
v -0.024883810430765152 0.024883823469281197 -0.085446968674659729
v -0.035191021859645844 1.288968043411387e-08 -0.085446968674659729
v -0.024883806705474854 -0.024883797392249107 -0.085446968674659729
v 4.6147450305511484e-09 -0.03519100695848465 -0.085446968674659729
v 0.024883812293410301 -0.024883793666958809 -0.085446968674659729
v 0.029698828235268593 0.029698852449655533 -0.065502248704433441
v 0.042000483721494675 2.1371139524717364e-08 -0.065502248704433441
v -1.8358996545231321e-09 0.042000506073236465 -0.065502248704433441
v -0.029698830097913742 0.029698846861720085 -0.065502248704433441
v -0.042000483721494675 1.769934065976031e-08 -0.065502248704433441
v -0.029698822647333145 -0.029698807746171951 -0.065502248704433441
v 5.5076987415247913e-09 -0.042000461369752884 -0.065502248704433441
v 0.029698831960558891 -0.029698802158236504 -0.065502248704433441
v 0.015908455476164818 0.015908487141132355 -0.056305885314941406
v 0.022497953847050667 2.7299590144025387e-08 -0.056305885314941406
v 0.042000483721494675 2.1371139524717364e-08 -0.065502248704433441
v 0.029698828235268593 0.029698852449655533 -0.065502248704433441
v -9.8341690346614996e-10 0.022497983649373055 -0.056305885314941406
v -1.8358996545231321e-09 0.042000506073236465 -0.065502248704433441
v -0.015908455476164818 0.015908485278487206 -0.056305885314941406
v -0.029698830097913742 0.029698846861720085 -0.065502248704433441
v -0.022497953847050667 2.5332758113449927e-08 -0.056305885314941406
v -0.015908455476164818 0.015908485278487206 -0.056305885314941406
v -0.029698830097913742 0.029698846861720085 -0.065502248704433441
v -0.042000483721494675 1.769934065976031e-08 -0.065502248704433441
v -0.015908455476164818 -0.015908429399132729 -0.056305892765522003
v -0.029698822647333145 -0.029698807746171951 -0.065502248704433441
v 2.9502507103984499e-09 -0.022497927770018578 -0.056305885314941406
v 5.5076987415247913e-09 -0.042000461369752884 -0.065502248704433441
v 0.015908459201455116 -0.01590842567384243 -0.056305892765522003
v 0.029698831960558891 -0.029698802158236504 -0.065502248704433441
v 0.01182792242616415 0.011827952228486538 0.10465146601200104
v 0.018023353070020676 0.018023373559117317 0.31519812345504761
v 0.025488870218396187 1.8713370408818264e-08 0.31519812345504761
v 0.016727209091186523 2.7476115604940787e-08 0.10465146601200104
v -7.3116951382345974e-10 0.016727238893508911 0.10465146601200104
v -1.1982197456461563e-09 0.025488890707492828 0.31519812345504761
v -0.011827924288809299 0.011827951297163963 0.10465146601200104
v -0.018023354932665825 0.018023373559117317 0.31519812345504761
v -0.016727209091186523 2.6013777798539195e-08 0.10465146601200104
v -0.025488870218396187 1.6485063980553605e-08 0.31519812345504761
v -0.01182792242616415 -0.011827896349132061 0.10465146601200104
v -0.018023351207375526 -0.018023334443569183 0.31519812345504761
v 2.1935087080038329e-09 -0.016727181151509285 0.10465146601200104
v 3.2583959974630261e-09 -0.025488853454589844 0.31519812345504761
v 0.011827925220131874 -0.011827893555164337 0.10465146601200104
v 0.018023356795310974 -0.018023330718278885 0.31519812345504761
v 0.029983498156070709 0.029983507469296455 0.7823718786239624
v 0.042403072118759155 5.3123221377404661e-09 0.7823718786239624
v 0.044044069945812225 5.475220277162407e-10 0.75068354606628418
v 0.031143860891461372 0.031143864616751671 0.75068354606628418
v -2.1320638587951635e-09 0.042403079569339752 0.7823718786239624
v -2.2037935920593554e-09 0.044044069945812225 0.75068354606628418
v -0.029983501881361008 0.029983501881361008 0.7823718786239624
v -0.031143862754106522 0.031143862754106522 0.75068354606628418
v -0.042403072118759155 1.6053292029027943e-09 0.7823718786239624
v -0.044044069945812225 -3.3029330381850741e-09 0.75068354606628418
v -0.029983494430780411 -0.02998349629342556 0.7823718786239624
v -0.031143857166171074 -0.031143860891461372 0.75068354606628418
v 5.281925119504649e-09 -0.042403068393468857 0.7823718786239624
v 5.4971156515648545e-09 -0.044044073671102524 0.75068354606628418
v 0.029983505606651306 -0.029983490705490112 0.7823718786239624
v 0.03114386647939682 -0.031143855303525925 0.75068354606628418
v 0.021467769518494606 0.021467780694365501 0.79753291606903076
v 0.030360013246536255 7.5602208937652904e-09 0.79753291606903076
v -1.6056451723756027e-09 0.030360022559762001 0.79753291606903076
v -0.021467773243784904 0.021467778831720352 0.79753291606903076
v -0.030360013246536255 4.9060639994991107e-09 0.79753291606903076
v -0.021467769518494606 -0.021467763930559158 0.79753291606903076
v 3.7026683941121519e-09 -0.030360005795955658 0.79753291606903076
v 0.021467775106430054 -0.02146776020526886 0.79753291606903076
v -2.6183855084127572e-10 1.1646100972484419e-08 0.80730557441711426
v 0.025488870218396187 1.8713370408818264e-08 0.31519812345504761
v 0.018023353070020676 0.018023373559117317 0.31519812345504761
v -1.1982197456461563e-09 0.025488890707492828 0.31519812345504761
v -0.018023354932665825 0.018023373559117317 0.31519812345504761
v -0.025488870218396187 1.6485063980553605e-08 0.31519812345504761
v -0.018023351207375526 -0.018023334443569183 0.31519812345504761
v 3.2583959974630261e-09 -0.025488853454589844 0.31519812345504761
v 0.018023356795310974 -0.018023330718278885 0.31519812345504761
vt 0.50184571743011475 0.00049948692321777344
vt 0.79887574911117554 0.039419889450073242
vt 0.92190957069396973 0.039419829845428467
vt 0.50184577703475952 0.039419889450073242
vt 0.20481579005718231 0.039419889450073242
vt 0.081781864166259766 0.039419829845428467
vt 0.20481570065021515 0.039419889450073242
vt 0.50184565782546997 0.039419889450073242
vt 0.79887568950653076 0.039419889450073242
vt 0.85635113716125488 0.13940447568893433
vt 1.0031919479370117 0.13940447568893433
vt 0.5018458366394043 0.13940447568893433
vt 0.14734046161174774 0.13940447568893433
vt 0.00049951672554016113 0.13940447568893433
vt 0.14734037220478058 0.1394045352935791
vt 0.50184565782546997 0.1394045352935791
vt 0.85635101795196533 0.1394045352935791
vt 1.516426682472229 1.0038857460021973
vt 1.2901674509048462 1.0038857460021973
vt 1.2901673316955566 0.89614051580429077
vt 1.5164265632629395 0.89614051580429077
vt 1.7426859140396118 1.0038857460021973
vt 1.7426859140396118 0.89614051580429077
vt 1.9689452648162842 1.0038857460021973
vt 1.9689452648162842 0.89614051580429077
vt 0.38513022661209106 1.0038857460021973
vt 0.15887095034122467 1.0038857460021973
vt 0.15887100994586945 0.89614051580429077
vt 0.38513028621673584 0.89614051580429077
vt 0.61138945817947388 1.0038857460021973
vt 0.61138957738876343 0.89614051580429077
vt 0.83764886856079102 1.0038857460021973
vt 0.83764886856079102 0.89614051580429077
vt 1.0639081001281738 1.0038857460021973
vt 1.0639081001281738 0.89614051580429077
vt 0.73314064741134644 0.00049960613250732422
vt 0.85477560758590698 0.14678740501403809
vt 1.001346230506897 0.14678740501403809
vt 0.82932835817337036 0.00049960613250732422
vt 0.50092291831970215 0.00049960613250732422
vt 0.50092297792434692 0.14678740501403809
vt 0.2687050998210907 0.00049960613250732422
vt 0.14707015454769135 0.14678740501403809
vt 0.172517329454422 0.00049960613250732422
vt 0.00049951672554016113 0.14678740501403809
vt 0.26870501041412354 0.00049960613250732422
vt 0.14707006514072418 0.14678740501403809
vt 0.5009227991104126 0.00049960613250732422
vt 0.5009227991104126 0.14678740501403809
vt 0.73314058780670166 0.00049960613250732422
vt 0.85477554798126221 0.14678740501403809
vt 0.84004068374633789 0.94980365037918091
vt 0.98089009523391724 0.94980370998382568
vt 0.99950051307678223 0.88664388656616211
vt 0.85320031642913818 0.88664388656616211
vt 0.50000011920928955 0.94980365037918091
vt 0.50000011920928955 0.88664388656616211
vt 0.15995940566062927 0.94980365037918091
vt 0.14679986238479614 0.88664388656616211
vt 0.019109904766082764 0.94980370998382568
vt 0.00049948692321777344 0.88664388656616211
vt 0.1599593460559845 0.94980370998382568
vt 0.14679977297782898 0.88664388656616211
vt 0.49999994039535522 0.94980370998382568
vt 0.49999994039535522 0.88664388656616211
vt 0.84004062414169312 0.94980370998382568
vt 0.85320019721984863 0.88664388656616211
vt 0.74346446990966797 0.980022132396698
vt 0.84431064128875732 0.980022132396698
vt 0.50000005960464478 0.980022132396698
vt 0.25653564929962158 0.980022132396698
vt 0.15568935871124268 0.980022132396698
vt 0.25653555989265442 0.980022132396698
vt 0.49999997019767761 0.980022132396698
vt 0.74346435070037842 0.980022132396698
vt 0.5 0.99950039386749268
vt 0.79186415672302246 0.0097280144691467285
vt 0.70637917518615723 0.0097280144691467285
vt 0.50000005960464478 0.0097280144691467285
vt 0.29362094402313232 0.0097280144691467285
vt 0.20813587307929993 0.0097280144691467285
vt 0.29362088441848755 0.0097280144691467285
vt 0.49999997019767761 0.0097280144691467285
vt 0.70637905597686768 0.0097280144691467285
vn 0 -2.8725235523552328e-08 -1
vn 0.45527505874633789 0.57801425457000732 -0.67721796035766602
vn 0.73207718133926392 0.086959712207317352 -0.67854440212249756
vn -0.086789712309837341 0.73064589500427246 -0.67721796035766602
vn -0.5780143141746521 0.45527505874633789 -0.67721790075302124
vn -0.73064601421356201 -0.086789771914482117 -0.67721778154373169
vn -0.45527517795562744 -0.5780145525932312 -0.67721760272979736
vn 0.086789779365062714 -0.73064625263214111 -0.67721754312515259
vn 0.57914668321609497 -0.45616701245307922 -0.67854422330856323
vn 0.67485320568084717 0.61189275979995728 0.41250503063201904
vn 0.91164898872375488 -0.044607013463973999 0.41331323981285095
vn 0.044519741088151932 0.9098668098449707 0.41250500082969666
vn -0.61309134960174561 0.67617505788803101 0.41331309080123901
vn -0.91164898872375488 0.044606871902942657 0.41331326961517334
vn -0.67485314607620239 -0.61189258098602295 0.41250544786453247
vn -0.044519662857055664 -0.90986663103103638 0.41250547766685486
vn 0.61189258098602295 -0.67485308647155762 0.41250547766685486
vn 0.52385175228118896 0.58000689744949341 0.6238359808921814
vn 0.78054589033126831 0.039707634598016739 0.62383604049682617
vn 0.91164898872375488 -0.044607013463973999 0.41331323981285095
vn 0.67485320568084717 0.61189275979995728 0.41250503063201904
vn -0.039785481989383698 0.78207498788833618 0.6250578761100769
vn 0.044519741088151932 0.9098668098449707 0.41250500082969666
vn -0.58000695705413818 0.52385175228118896 0.62383592128753662
vn -0.61309134960174561 0.67617505788803101 0.41331309080123901
vn -0.78054594993591309 -0.03970777615904808 0.6238359808921814
vn -0.58000695705413818 0.52385175228118896 0.62383592128753662
vn -0.61309134960174561 0.67617505788803101 0.41331309080123901
vn -0.91164898872375488 0.044606871902942657 0.41331326961517334
vn -0.52385175228118896 -0.58000677824020386 0.62383610010147095
vn -0.67485314607620239 -0.61189258098602295 0.41250544786453247
vn 0.039707809686660767 -0.78054583072662354 0.62383610010147095
vn -0.044519662857055664 -0.90986663103103638 0.41250547766685486
vn 0.58114302158355713 -0.52487772703170776 0.62505811452865601
vn 0.61189258098602295 -0.67485308647155762 0.41250547766685486
vn 0.79708117246627808 0.60367685556411743 -0.015357515774667263
vn 0.60322344303131104 0.79648250341415405 -0.04167894646525383
vn 0.98974156379699707 0.13665477931499481 -0.041678961366415024
vn 0.99242568016052246 -0.13702529668807983 -0.015387626364827156
vn 0.137025386095047 0.99242568016052246 -0.015387583523988724
vn -0.1366548091173172 0.98974156379699707 -0.041678935289382935
vn -0.60367691516876221 0.7970811128616333 -0.015357510186731815
vn -0.79648256301879883 0.60322338342666626 -0.041678950190544128
vn -0.99242568016052246 0.13702528178691864 -0.015387621708214283
vn -0.99168026447296143 -0.13692259788513184 -0.041760619729757309
vn -0.7970811128616333 -0.60367691516876221 -0.015357561409473419
vn -0.60322344303131104 -0.79648250341415405 -0.041679006069898605
vn -0.13702534139156342 -0.99242568016052246 -0.015387659892439842
vn 0.13692259788513184 -0.99168026447296143 -0.041760660707950592
vn 0.60367697477340698 -0.7970811128616333 -0.015357565134763718
vn 0.79648256301879883 -0.60322332382202148 -0.041679002344608307
vn 0.66990208625793457 0.6504441499710083 0.35798555612564087
vn 0.93545454740524292 -0.013785705901682377 0.35868686437606812
vn 0.99998950958251953 -2.544864037190564e-05 0.0045799789950251579
vn 0.70711737871170044 0.7070813775062561 0.0045799403451383114
vn 0.013758725486695766 0.93362581729888916 0.35798546671867371
vn 2.5427118089282885e-05 0.99998950958251953 0.0045799245126545429
vn -0.65044420957565308 0.66990202665328979 0.35798552632331848
vn -0.7070813775062561 0.70711737871170044 0.0045799887739121914
vn -0.93545454740524292 0.013785666786134243 0.3586868941783905
vn -0.99998950958251953 2.533563383622095e-05 0.0045800032094120979
vn -0.66990196704864502 -0.6504441499710083 0.35798567533493042
vn -0.70711731910705566 -0.70708143711090088 0.0045800516381859779
vn -0.013785723596811295 -0.93545448780059814 0.35868701338768005
vn -2.5405592168681324e-05 -0.99998950958251953 0.004580056294798851
vn 0.65044420957565308 -0.66990190744400024 0.3579857349395752
vn 0.70708149671554565 -0.70711725950241089 0.0045800032094120979
vn 0.47943970561027527 0.38555312156677246 0.78834408521652222
vn 0.61284035444259644 -0.066517844796180725 0.78988832235336304
vn 0.066387854516506195 0.61164230108261108 0.78834408521652222
vn -0.38630840182304382 0.48037886619567871 0.78988826274871826
vn -0.61164224147796631 0.066387832164764404 0.78834408521652222
vn -0.47943967580795288 -0.38555315136909485 0.78834408521652222
vn -0.066387824714183807 -0.61164224147796631 0.78834414482116699
vn 0.38555312156677246 -0.47943961620330811 0.78834414482116699
vn 3.9449261635127186e-09 2.3669556981076312e-08 1
vn 0.98974156379699707 0.13665477931499481 -0.041678961366415024
vn 0.60322344303131104 0.79648250341415405 -0.04167894646525383
vn -0.1366548091173172 0.98974156379699707 -0.041678935289382935
vn -0.79648256301879883 0.60322338342666626 -0.041678950190544128
vn -0.99168026447296143 -0.13692259788513184 -0.041760619729757309
vn -0.60322344303131104 -0.79648250341415405 -0.041679006069898605
vn 0.13692259788513184 -0.99168026447296143 -0.041760660707950592
vn 0.79648256301879883 -0.60322332382202148 -0.041679002344608307
f 1/1/1 2/2/2 3/3/3
f 1/1/1 4/4/4 2/2/2
f 1/1/1 5/5/5 4/4/4
f 1/1/1 6/6/6 5/5/5
f 1/1/1 7/7/7 6/6/6
f 1/1/1 8/8/8 7/7/7
f 1/1/1 9/9/9 8/8/8
f 1/1/1 3/3/3 9/9/9
f 10/10/10 11/11/11 3/3/3
f 3/3/3 2/2/2 10/10/10
f 12/12/12 10/10/10 2/2/2
f 2/2/2 4/4/4 12/12/12
f 13/13/13 12/12/12 4/4/4
f 4/4/4 5/5/5 13/13/13
f 14/14/14 13/13/13 5/5/5
f 5/5/5 6/6/6 14/14/14
f 15/15/15 14/14/14 6/6/6
f 6/6/6 7/7/7 15/15/15
f 16/16/16 15/15/15 7/7/7
f 7/7/7 8/8/8 16/16/16
f 17/17/17 16/16/16 8/8/8
f 8/8/8 9/9/9 17/17/17
f 11/11/11 17/17/17 9/9/9
f 9/9/9 3/3/3 11/11/11
f 18/18/18 19/19/19 20/20/20
f 20/20/20 21/21/21 18/18/18
f 22/22/22 18/18/18 21/21/21
f 21/21/21 23/23/23 22/22/22
f 24/24/24 22/22/22 23/23/23
f 23/23/23 25/25/25 24/24/24
f 26/26/26 27/27/27 28/28/28
f 28/28/28 29/29/29 26/26/26
f 30/30/30 26/26/26 29/29/29
f 29/29/29 31/31/31 30/30/30
f 32/32/32 30/30/30 31/31/31
f 31/31/31 33/33/33 32/32/32
f 34/34/34 32/32/32 33/33/33
f 33/33/33 35/35/35 34/34/34
f 19/19/19 34/34/34 35/35/35
f 35/35/35 20/20/20 19/19/19
f 36/36/36 37/37/37 38/38/38
f 38/38/38 39/39/39 36/36/36
f 40/40/40 41/41/41 37/37/37
f 37/37/37 36/36/36 40/40/40
f 42/42/42 43/43/43 41/41/41
f 41/41/41 40/40/40 42/42/42
f 44/44/44 45/45/45 43/43/43
f 43/43/43 42/42/42 44/44/44
f 46/46/46 47/47/47 45/45/45
f 45/45/45 44/44/44 46/46/46
f 48/48/48 49/49/49 47/47/47
f 47/47/47 46/46/46 48/48/48
f 50/50/50 51/51/51 49/49/49
f 49/49/49 48/48/48 50/50/50
f 39/39/39 38/38/38 51/51/51
f 51/51/51 50/50/50 39/39/39
f 52/52/52 53/53/53 54/54/54
f 54/54/54 55/55/55 52/52/52
f 56/56/56 52/52/52 55/55/55
f 55/55/55 57/57/57 56/56/56
f 58/58/58 56/56/56 57/57/57
f 57/57/57 59/59/59 58/58/58
f 60/60/60 58/58/58 59/59/59
f 59/59/59 61/61/61 60/60/60
f 62/62/62 60/60/60 61/61/61
f 61/61/61 63/63/63 62/62/62
f 64/64/64 62/62/62 63/63/63
f 63/63/63 65/65/65 64/64/64
f 66/66/66 64/64/64 65/65/65
f 65/65/65 67/67/67 66/66/66
f 53/53/53 66/66/66 67/67/67
f 67/67/67 54/54/54 53/53/53
f 68/68/68 69/69/69 53/53/53
f 53/53/53 52/52/52 68/68/68
f 70/70/70 68/68/68 52/52/52
f 52/52/52 56/56/56 70/70/70
f 71/71/71 70/70/70 56/56/56
f 56/56/56 58/58/58 71/71/71
f 72/72/72 71/71/71 58/58/58
f 58/58/58 60/60/60 72/72/72
f 73/73/73 72/72/72 60/60/60
f 60/60/60 62/62/62 73/73/73
f 74/74/74 73/73/73 62/62/62
f 62/62/62 64/64/64 74/74/74
f 75/75/75 74/74/74 64/64/64
f 64/64/64 66/66/66 75/75/75
f 69/69/69 75/75/75 66/66/66
f 66/66/66 53/53/53 69/69/69
f 69/69/69 68/68/68 76/76/76
f 68/68/68 70/70/70 76/76/76
f 70/70/70 71/71/71 76/76/76
f 71/71/71 72/72/72 76/76/76
f 72/72/72 73/73/73 76/76/76
f 73/73/73 74/74/74 76/76/76
f 74/74/74 75/75/75 76/76/76
f 75/75/75 69/69/69 76/76/76
f 55/55/55 54/54/54 77/77/77
f 77/77/77 78/78/78 55/55/55
f 57/57/57 55/55/55 78/78/78
f 78/78/78 79/79/79 57/57/57
f 59/59/59 57/57/57 79/79/79
f 79/79/79 80/80/80 59/59/59
f 61/61/61 59/59/59 80/80/80
f 80/80/80 81/81/81 61/61/61
f 63/63/63 61/61/61 81/81/81
f 81/81/81 82/82/82 63/63/63
f 65/65/65 63/63/63 82/82/82
f 82/82/82 83/83/83 65/65/65
f 67/67/67 65/65/65 83/83/83
f 83/83/83 84/84/84 67/67/67
f 54/54/54 67/67/67 84/84/84
f 84/84/84 77/77/77 54/54/54

# BaseballBat:1

g BaseballBat:1
usemtl Material.000055

v 0.012862449511885643 0.012862486764788628 -0.033557742834091187
v 0.018190251663327217 3.3110829633642425e-08 -0.033557742834091187
v 0.022497953847050667 2.7299590144025387e-08 -0.056305885314941406
v 0.015908455476164818 0.015908487141132355 -0.056305885314941406
v -7.9512124662173278e-10 0.018190287053585052 -0.033557750284671783
v -9.8341690346614996e-10 0.022497983649373055 -0.056305885314941406
v -0.012862452305853367 0.012862483970820904 -0.033557742834091187
v -0.015908455476164818 0.015908485278487206 -0.056305885314941406
v -0.018190251663327217 3.1520588805733496e-08 -0.033557742834091187
v -0.012862452305853367 0.012862483970820904 -0.033557742834091187
v -0.015908455476164818 0.015908485278487206 -0.056305885314941406
v -0.022497953847050667 2.5332758113449927e-08 -0.056305885314941406
v -0.012862449511885643 -0.01286242064088583 -0.033557750284671783
v -0.015908455476164818 -0.015908429399132729 -0.056305892765522003
v 2.385363906398652e-09 -0.018190221861004829 -0.033557742834091187
v 2.9502507103984499e-09 -0.022497927770018578 -0.056305885314941406
v 0.012862455099821091 -0.012862417846918106 -0.033557750284671783
v 0.015908459201455116 -0.01590842567384243 -0.056305892765522003
v 0.01182792242616415 0.011827952228486538 0.10465146601200104
v 0.016727209091186523 2.7476115604940787e-08 0.10465146601200104
v -7.3116951382345974e-10 0.016727238893508911 0.10465146601200104
v -0.011827924288809299 0.011827951297163963 0.10465146601200104
v -0.016727209091186523 2.6013777798539195e-08 0.10465146601200104
v -0.011827924288809299 0.011827951297163963 0.10465146601200104
v -0.01182792242616415 -0.011827896349132061 0.10465146601200104
v 2.1935087080038329e-09 -0.016727181151509285 0.10465146601200104
v 0.011827925220131874 -0.011827893555164337 0.10465146601200104
vt 0.875 0.11341917514801025
vt 0.75 0.11341917514801025
vt 0.74999994039535522 0.00049948692321777344
vt 0.87499994039535522 0.00049948692321777344
vt 0.99999994039535522 0.11341917514801025
vt 0.99999994039535522 0.00049948692321777344
vt 1.125 0.11341917514801025
vt 1.125 0.00049948692321777344
vt 0.24999994039535522 0.11341917514801025
vt 0.12499994784593582 0.11341917514801025
vt 0.12499997019767761 0.00049948692321777344
vt 0.24999998509883881 0.00049948692321777344
vt 0.37499997019767761 0.11341917514801025
vt 0.37499997019767761 0.00049948692321777344
vt 0.49999997019767761 0.11341917514801025
vt 0.49999997019767761 0.00049948692321777344
vt 0.625 0.11341917514801025
vt 0.625 0.00049948692321777344
vt 0.875 0.99950045347213745
vt 0.74999994039535522 0.99950045347213745
vt 0.99999994039535522 0.99950045347213745
vt 1.125 0.99950045347213745
vt 0.24999997019767761 0.99950045347213745
vt 0.12499997019767761 0.99950045347213745
vt 0.37499997019767761 0.99950045347213745
vt 0.49999997019767761 0.99950045347213745
vt 0.625 0.99950045347213745
vn 0.70291560888290405 0.70437544584274292 0.098817624151706696
vn 0.99510502815246582 0.0010323654860258102 0.098817668855190277
vn 0.78054589033126831 0.039707634598016739 0.62383604049682617
vn 0.52385175228118896 0.58000689744949341 0.6238359808921814
vn -0.0010323601309210062 0.99510502815246582 0.098817616701126099
vn -0.039785481989383698 0.78207498788833618 0.6250578761100769
vn -0.70437556505203247 0.7029154896736145 0.098817594349384308
vn -0.58000695705413818 0.52385175228118896 0.62383592128753662
vn -0.99510502815246582 -0.0010323547758162022 0.098817631602287292
vn -0.70437556505203247 0.7029154896736145 0.098817594349384308
vn -0.58000695705413818 0.52385175228118896 0.62383592128753662
vn -0.78054594993591309 -0.03970777615904808 0.6238359808921814
vn -0.70291554927825928 -0.70437544584274292 0.098817735910415649
vn -0.52385175228118896 -0.58000677824020386 0.62383610010147095
vn 0.0010323332389816642 -0.99510502815246582 0.09881775826215744
vn 0.039707809686660767 -0.78054583072662354 0.62383610010147095
vn 0.70437562465667725 -0.70291543006896973 0.098817713558673859
vn 0.58114302158355713 -0.52487772703170776 0.62505811452865601
vn 0.79708117246627808 0.60367685556411743 -0.015357515774667263
vn 0.99242568016052246 -0.13702529668807983 -0.015387626364827156
vn 0.137025386095047 0.99242568016052246 -0.015387583523988724
vn -0.60367691516876221 0.7970811128616333 -0.015357510186731815
vn -0.99242568016052246 0.13702528178691864 -0.015387621708214283
vn -0.60367691516876221 0.7970811128616333 -0.015357510186731815
vn -0.7970811128616333 -0.60367691516876221 -0.015357561409473419
vn -0.13702534139156342 -0.99242568016052246 -0.015387659892439842
vn 0.60367697477340698 -0.7970811128616333 -0.015357565134763718
f 85/85/85 86/86/86 87/87/87
f 87/87/87 88/88/88 85/85/85
f 89/89/89 85/85/85 88/88/88
f 88/88/88 90/90/90 89/89/89
f 91/91/91 89/89/89 90/90/90
f 90/90/90 92/92/92 91/91/91
f 93/93/93 94/94/94 95/95/95
f 95/95/95 96/96/96 93/93/93
f 97/97/97 93/93/93 96/96/96
f 96/96/96 98/98/98 97/97/97
f 99/99/99 97/97/97 98/98/98
f 98/98/98 100/100/100 99/99/99
f 101/101/101 99/99/99 100/100/100
f 100/100/100 102/102/102 101/101/101
f 86/86/86 101/101/101 102/102/102
f 102/102/102 87/87/87 86/86/86
f 103/103/103 104/104/104 86/86/86
f 86/86/86 85/85/85 103/103/103
f 105/105/105 103/103/103 85/85/85
f 85/85/85 89/89/89 105/105/105
f 106/106/106 105/105/105 89/89/89
f 89/89/89 91/91/91 106/106/106
f 107/107/107 108/108/108 94/94/94
f 94/94/94 93/93/93 107/107/107
f 109/109/109 107/107/107 93/93/93
f 93/93/93 97/97/97 109/109/109
f 110/110/110 109/109/109 97/97/97
f 97/97/97 99/99/99 110/110/110
f 111/111/111 110/110/110 99/99/99
f 99/99/99 101/101/101 111/111/111
f 104/104/104 111/111/111 101/101/101
f 101/101/101 86/86/86 104/104/104
