# 3ds Max Wavefront OBJ Exporter v0.97b - (c)2007 guruware
# File Created: 17.08.2016 18:04:34

mtllib Grenade.mtl

#
# object Grenade_NO_PIN
#

v  0.6792 17.2122 -1.2677
v  0.6792 14.6884 -1.4500
v  0.6792 17.2122 -1.9852
v  1.0213 14.6218 1.0213
v  1.4444 14.6218 -0.0000
v  1.0213 14.6218 -1.0213
v  0.0000 14.6218 -1.4444
v  -1.0213 14.6218 -1.0213
v  -1.0213 14.6218 1.0213
v  0.0000 14.6218 1.4444
v  0.0000 14.5331 1.7047
v  1.2054 14.5331 1.2054
v  1.7047 14.5331 -0.0000
v  1.2054 14.5331 -1.2054
v  -1.4444 14.6218 -0.0000
v  0.0000 14.5331 -1.7047
v  -1.2054 14.5331 -1.2054
v  -1.7047 14.5331 -0.0000
v  -1.2054 14.5331 1.2054
v  -3.3686 9.4837 -3.3686
v  -3.0008 10.7357 -3.0008
v  0.0000 10.7357 -4.2438
v  -3.3823 6.2366 -3.3823
v  -4.7833 6.2366 -0.0000
v  -4.7640 9.4837 -0.0000
v  -4.2438 10.7357 -0.0000
v  -2.7001 11.3651 -2.7001
v  0.0000 11.3651 -3.8185
v  2.7001 11.3651 -2.7001
v  3.0008 10.7357 -3.0008
v  3.8185 11.3651 -0.0000
v  0.0000 11.3651 3.8185
v  2.7001 11.3651 2.7001
v  1.7177 12.0960 1.7177
v  2.4292 12.0960 -0.0000
v  1.7177 12.0960 -1.7177
v  0.0000 12.0960 -2.4292
v  -1.7177 12.0960 -1.7177
v  -3.8185 11.3651 -0.0000
v  0.0000 12.0960 2.4292
v  -1.7177 12.0960 1.7177
v  -2.7001 11.3651 2.7001
v  0.0000 10.7357 4.2438
v  -3.0008 10.7357 3.0008
v  -2.4292 12.0960 -0.0000
v  -3.3686 9.4838 3.3686
v  0.0000 9.4837 4.7640
v  0.0000 6.2366 4.7833
v  -3.3823 6.2366 3.3823
v  0.0000 3.7208 3.8439
v  -2.7180 3.7208 2.7180
v  0.0000 1.8345 3.1195
v  -3.8439 3.7208 -0.0000
v  -2.2058 1.8345 2.2058
v  -3.1195 1.8345 -0.0000
v  -1.6577 0.5576 1.6577
v  -2.3444 0.5576 -0.0000
v  -1.6577 0.5576 -1.6577
v  -2.2058 1.8345 -2.2058
v  -2.7180 3.7208 -2.7180
v  0.0000 0.5576 2.3444
v  2.7180 3.7208 -2.7180
v  2.2058 1.8345 -2.2058
v  0.0000 1.8345 -3.1195
v  0.0000 3.7208 -3.8439
v  0.0000 6.2366 -4.7833
v  0.0000 9.4837 -4.7640
v  3.3686 9.4838 -3.3686
v  3.3823 6.2366 -3.3823
v  4.2438 10.7357 -0.0000
v  4.7640 9.4837 -0.0000
v  4.7833 6.2366 -0.0000
v  3.8439 3.7208 -0.0000
v  3.1195 1.8345 -0.0000
v  3.0008 10.7357 3.0008
v  3.3686 9.4837 3.3686
v  3.3823 6.2366 3.3823
v  2.7180 3.7208 2.7180
v  2.2058 1.8345 2.2058
v  1.6577 0.5576 1.6577
v  0.0000 0.5576 -2.3444
v  1.6577 0.5576 -1.6577
v  2.3444 0.5576 -0.0000
v  1.4120 17.7248 -2.3876
v  -1.3855 17.7248 -2.3876
v  -1.3855 17.9836 -2.2829
v  1.4120 17.9836 -2.2829
v  1.4120 17.5763 -2.3280
v  -1.3855 17.5763 -2.3280
v  1.4120 17.4784 -2.4611
v  -1.3855 17.4784 -2.4611
v  1.4120 17.2505 -2.1839
v  -1.3855 17.2505 -2.1839
v  -1.3855 17.3360 -2.3289
v  1.4120 17.3360 -2.3289
v  1.4120 17.2122 -1.2675
v  1.4120 17.2122 -1.9850
v  -0.6781 17.2122 -1.9852
v  -1.3855 17.2122 -1.9850
v  -0.6781 17.2122 -1.2677
v  -1.3855 17.2122 -1.2675
v  -1.3875 5.4766 6.8791
v  1.4158 5.4766 6.8791
v  1.4158 5.4918 7.0539
v  -1.3875 5.4918 7.0539
v  1.4120 14.6884 -1.4500
v  -1.3875 6.2634 6.8103
v  1.4158 6.2634 6.8103
v  -1.3875 6.4533 6.6510
v  1.4158 6.4533 6.6510
v  -1.3875 6.4780 6.5585
v  -1.3875 6.6680 6.3991
v  1.4158 6.6680 6.3991
v  1.4158 6.4780 6.5585
v  -0.6781 14.6884 -1.4500
v  -1.3855 14.6884 -1.4500
v  -1.3855 14.6884 3.7990
v  1.4120 14.6884 3.7990
v  1.4158 14.5404 3.9205
v  -1.3875 14.5404 3.9205
v  -1.3875 11.0856 6.0126
v  1.4158 11.0856 6.0126
v  1.3109 0.4667 1.3109
v  0.0000 0.4667 1.8539
v  -1.3109 0.4667 1.3109
v  -1.8539 0.4667 -0.0000
v  1.8539 0.4667 -0.0000
v  1.3109 0.4667 -1.3109
v  -1.3109 0.4667 -1.3109
v  0.0000 0.4667 -1.8539
v  -1.3875 10.9791 6.5738
v  -1.3875 11.5072 6.4217
v  -1.3875 17.9523 2.5466
v  -1.3875 18.2033 2.3636
v  -1.3875 18.2417 2.2160
v  -1.3855 18.2392 -1.1981
v  -1.3875 18.0899 2.4843
v  -1.3855 18.0905 -2.0267
v  1.4120 18.0905 -2.0267
v  1.4120 18.2392 -1.1981
v  1.4158 18.2417 2.2160
v  1.4158 18.2033 2.3636
v  1.4158 17.9523 2.5466
v  1.4158 18.0899 2.4843
v  1.4158 10.9791 6.5738
v  1.4158 11.5072 6.4217
# 146 vertices

vn 1.0000 0.0000 -0.0000
vn 0.1462 0.9866 0.0731
vn 0.1984 0.9801 -0.0047
vn 0.1433 0.9793 -0.1432
vn 0.0743 0.9809 -0.1795
vn 0.0000 1.0000 -0.0000
vn -0.1466 0.9873 -0.0608
vn -0.1433 0.9793 0.1432
vn 0.0000 0.9793 0.2026
vn -0.0128 0.9465 0.3225
vn 0.1324 0.9382 0.3196
vn 0.2280 0.9466 0.2280
vn 0.3196 0.9382 0.1324
vn 0.3225 0.9466 -0.0000
vn 0.2280 0.9466 -0.2280
vn -0.2026 0.9793 0.0000
vn 0.0935 0.9424 -0.3211
vn -0.1324 0.9382 -0.3197
vn -0.2280 0.9466 -0.2280
vn -0.3225 0.9466 0.0000
vn -0.2280 0.9466 0.2280
vn -0.6942 0.1900 -0.6942
vn -0.6263 0.4642 -0.6263
vn -0.0772 0.4405 -0.8944
vn -0.6971 -0.1677 -0.6971
vn -0.9858 -0.1677 -0.0000
vn -0.9847 0.1256 -0.1211
vn -0.8689 0.4834 -0.1065
vn -0.4936 0.7160 -0.4936
vn -0.1443 0.7654 -0.6272
vn 0.3246 0.5296 -0.7837
vn 0.4936 0.7160 -0.4936
vn 0.6263 0.4642 -0.6263
vn 0.6981 0.7160 -0.0000
vn 0.0000 0.7160 0.6981
vn 0.4936 0.7160 0.4936
vn 0.3292 0.8850 0.3292
vn 0.4656 0.8850 0.0000
vn 0.3292 0.8850 -0.3292
vn 0.0000 0.8850 -0.4656
vn -0.3292 0.8850 -0.3292
vn -0.6981 0.7160 0.0000
vn 0.0000 0.8850 0.4656
vn -0.3292 0.8850 0.3292
vn -0.4936 0.7160 0.4936
vn 0.0000 0.4642 0.8857
vn -0.6263 0.4642 0.6263
vn -0.4656 0.8850 -0.0000
vn -0.6775 0.1765 0.7141
vn 0.0000 0.1900 0.9818
vn 0.0000 -0.1677 0.9858
vn -0.6971 -0.1677 0.6971
vn 0.0000 -0.3538 0.9353
vn -0.6614 -0.3538 0.6614
vn -0.0000 -0.4320 0.9019
vn -0.8625 0.3584 0.3573
vn -0.9353 -0.3538 0.0000
vn -0.6377 -0.4320 0.6377
vn -0.9019 -0.4320 -0.0000
vn -0.6045 -0.5189 0.6045
vn -0.8548 -0.5189 -0.0000
vn -0.6549 -0.5175 -0.5508
vn -0.6377 -0.4320 -0.6377
vn -0.6614 -0.3538 -0.6614
vn 0.0000 -0.5189 0.8548
vn 0.6614 -0.3538 -0.6614
vn 0.6377 -0.4320 -0.6377
vn 0.0503 -0.4188 -0.9067
vn 0.0000 -0.3538 -0.9353
vn -0.0000 -0.1677 -0.9858
vn -0.0000 0.1900 -0.9818
vn 0.6942 0.1900 -0.6942
vn 0.6971 -0.1677 -0.6971
vn 0.8857 0.4642 -0.0000
vn 0.9818 0.1900 0.0000
vn 0.9858 -0.1677 0.0000
vn 0.9353 -0.3538 -0.0000
vn 0.9019 -0.4320 0.0000
vn 0.6263 0.4642 0.6263
vn 0.6942 0.1900 0.6942
vn 0.6971 -0.1677 0.6971
vn 0.6614 -0.3538 0.6614
vn 0.6377 -0.4320 0.6377
vn 0.6045 -0.5189 0.6045
vn -0.3338 -0.4891 -0.8058
vn 0.0000 -0.5189 -0.8548
vn 0.6045 -0.5189 -0.6045
vn 0.8548 -0.5189 0.0000
vn 0.0000 0.3750 -0.9270
vn 0.0000 -0.3725 -0.9280
vn 0.0000 0.8056 -0.5925
vn 0.0000 -0.9354 -0.3537
vn -0.0000 -0.9354 -0.3537
vn 0.0000 -0.7790 -0.6270
vn 0.0000 -0.6804 -0.7329
vn 0.0000 -1.0000 -0.0000
vn 0.0000 -0.9919 -0.1267
vn 0.0000 -0.9955 -0.0950
vn -0.0000 -0.9919 -0.1267
vn -0.0000 -0.9955 -0.0950
vn 0.0000 -0.9962 0.0866
vn -0.3690 0.2648 -0.8909
vn -0.8909 0.2648 -0.3690
vn -0.8909 0.2648 0.3690
vn -0.3690 0.2648 0.8909
vn 0.0002 0.0721 -0.9974
vn 0.0000 0.0721 -0.9974
vn 0.0003 0.0720 -0.9974
vn 0.0000 -0.0871 -0.9962
vn 0.0000 -0.6427 -0.7661
vn 0.0000 -0.9661 -0.2580
vn 0.0000 -0.2074 -0.9782
vn -0.0002 0.0721 -0.9974
vn -0.0003 0.0720 -0.9974
vn -0.0000 0.0721 -0.9974
vn 0.3690 0.2648 0.8909
vn 0.8909 0.2648 0.3690
vn 0.8909 0.2648 -0.3690
vn 0.3690 0.2648 -0.8909
vn 0.0000 -0.6345 -0.7729
vn 0.0000 -0.5774 -0.8165
vn 0.0000 -0.5775 -0.8164
vn 0.0000 -0.3107 -0.9505
vn 0.0000 -0.0872 -0.9962
vn 0.0807 -0.9935 0.0807
vn -0.0000 -0.9935 0.1141
vn -0.0807 -0.9935 0.0807
vn -0.1141 -0.9935 -0.0000
vn -0.1822 -0.9833 -0.0000
vn -0.1289 -0.9833 -0.1289
vn -0.1289 -0.9833 0.1289
vn -0.0000 -0.9833 0.1822
vn 0.1289 -0.9833 0.1289
vn 0.1141 -0.9935 0.0000
vn 0.1822 -0.9833 0.0000
vn 0.0807 -0.9935 -0.0807
vn 0.1289 -0.9833 -0.1289
vn -0.0807 -0.9935 -0.0807
vn 0.0000 -0.9935 -0.1141
vn 0.0000 -0.9833 -0.1822
vn -1.0000 0.0000 -0.0000
vn -1.0000 -0.0012 -0.0030
vn -1.0000 -0.0012 -0.0017
vn -0.9997 -0.0092 -0.0227
vn -1.0000 -0.0007 -0.0003
vn -1.0000 -0.0006 -0.0003
vn -1.0000 -0.0001 -0.0002
vn -1.0000 0.0000 -0.0003
vn 1.0000 -0.0002 -0.0004
vn 0.9989 -0.0175 -0.0431
vn 1.0000 0.0000 -0.0006
vn 1.0000 -0.0012 -0.0006
vn 1.0000 -0.0013 -0.0006
vn 1.0000 -0.0024 -0.0035
vn 1.0000 -0.0023 -0.0057
vn 0.0000 0.0872 0.9962
vn 0.0000 0.1828 0.9831
vn 0.0000 0.3994 0.9168
vn 0.0000 0.4647 0.8855
vn 0.0000 0.5817 0.8134
vn 0.0000 0.8755 0.4833
vn 0.0000 0.9920 0.1266
vn 0.0000 0.9960 -0.0890
vn 0.0000 0.9593 -0.2825
vn 0.0000 0.9229 -0.3851
# 165 vertex normals

vt 0.5776 0.7628 0.7628
vt 0.5850 0.6062 0.6062
vt 0.6064 0.7628 0.7628
vt 0.2876 0.5493 0.5493
vt 0.2473 0.5754 0.5754
vt 0.2069 0.5493 0.5493
vt 0.1902 0.4863 0.4863
vt 0.2069 0.4229 0.4229
vt 0.2876 0.4229 0.4229
vt 0.3042 0.4863 0.4863
vt 0.3147 0.4863 0.4863
vt 0.2949 0.5608 0.5608
vt 0.2473 0.5918 0.5918
vt 0.1996 0.5608 0.5608
vt 0.2473 0.3965 0.3965
vt 0.1799 0.4863 0.4863
vt 0.1996 0.4111 0.4111
vt 0.2473 0.3804 0.3804
vt 0.2949 0.4111 0.4111
vt 0.7646 0.3735 0.3735
vt 0.7681 0.4214 0.4214
vt 0.6968 0.4214 0.4214
vt 0.7632 0.2485 0.2485
vt 0.8452 0.2485 0.2485
vt 0.8467 0.3735 0.3735
vt 0.8472 0.4214 0.4214
vt 0.7720 0.4463 0.4463
vt 0.6968 0.4463 0.4463
vt 0.6240 0.4463 0.4463
vt 0.6279 0.4214 0.4214
vt 0.5488 0.4463 0.4463
vt 0.3987 0.4463 0.4463
vt 0.4741 0.4463 0.4463
vt 0.4810 0.5044 0.5044
vt 0.5498 0.5044 0.5044
vt 0.6187 0.5044 0.5044
vt 0.6968 0.5044 0.5044
vt 0.7793 0.5044 0.5044
vt 0.8472 0.4463 0.4463
vt 0.3987 0.5044 0.5044
vt 0.9951 0.4463 0.4463
vt 0.9951 0.5044 0.5044
vt 0.9170 0.5044 0.5044
vt 0.9224 0.4463 0.4463
vt 0.9951 0.4214 0.4214
vt 0.9263 0.4214 0.4214
vt 0.8481 0.5044 0.5044
vt 0.9282 0.3735 0.3735
vt 0.9951 0.3735 0.3735
vt 0.9951 0.2485 0.2485
vt 0.9272 0.2485 0.2485
vt 0.9951 0.1455 0.1455
vt 0.9229 0.1455 0.1455
vt 0.9951 0.0659 0.0659
vt 0.8442 0.1455 0.1455
vt 0.9180 0.0659 0.0659
vt 0.8433 0.0659 0.0659
vt 0.9155 0.0063 0.0063
vt 0.8428 0.0063 0.0063
vt 0.7695 0.0063 0.0063
vt 0.7686 0.0659 0.0659
vt 0.7656 0.1455 0.1455
vt 0.9951 0.0063 0.0063
vt 0.6245 0.1455 0.1455
vt 0.6196 0.0659 0.0659
vt 0.6968 0.0659 0.0659
vt 0.6968 0.1455 0.1455
vt 0.6968 0.2485 0.2485
vt 0.6968 0.3735 0.3735
vt 0.6299 0.3735 0.3735
vt 0.6294 0.2485 0.2485
vt 0.5488 0.4214 0.4214
vt 0.5483 0.3735 0.3735
vt 0.5469 0.2485 0.2485
vt 0.5459 0.1455 0.1455
vt 0.5449 0.0659 0.0659
vt 0.4700 0.4214 0.4214
vt 0.4668 0.3735 0.3735
vt 0.4651 0.2485 0.2485
vt 0.4673 0.1455 0.1455
vt 0.4705 0.0659 0.0659
vt 0.3987 0.0659 0.0659
vt 0.3987 0.1455 0.1455
vt 0.3987 0.2485 0.2485
vt 0.3987 0.3735 0.3735
vt 0.3987 0.4214 0.4214
vt 0.3987 0.0063 0.0063
vt 0.4717 0.0063 0.0063
vt 0.6968 0.0063 0.0063
vt 0.6172 0.0063 0.0063
vt 0.5444 0.0063 0.0063
vt 0.7998 0.8264 0.8264
vt 0.7998 1.0000 1.0000
vt 0.7891 1.0000 1.0000
vt 0.7891 0.8264 0.8264
vt 0.8145 0.8264 0.8264
vt 0.8145 1.0000 1.0000
vt 0.8262 0.8264 0.8264
vt 0.8262 1.0000 1.0000
vt 0.8457 0.8264 0.8264
vt 0.8457 1.0000 1.0000
vt 0.8350 1.0000 1.0000
vt 0.8350 0.8264 0.8264
vt 0.8887 0.8264 0.8264
vt 0.8887 0.8719 0.8719
vt 0.8555 0.8718 0.8718
vt 0.8555 0.8264 0.8264
vt 0.8555 0.9560 0.9560
vt 0.8555 1.0000 1.0000
vt 0.8887 0.9560 0.9560
vt 0.8887 1.0000 1.0000
vt -0.0000 1.0000 1.0000
vt -0.0000 0.8264 0.8264
vt 0.0075 0.8264 0.8264
vt 0.0075 1.0000 1.0000
vt 0.6968 0.6062 0.6062
vt 0.7876 0.6062 0.6062
vt 0.8491 0.6062 0.6062
vt 0.9102 0.6062 0.6062
vt 0.9951 0.6062 0.6062
vt 0.9971 0.8264 0.8264
vt 0.9971 0.8719 0.8719
vt 0.9668 0.8264 0.8264
vt 0.9668 0.6528 0.6528
vt 0.9966 0.6528 0.6528
vt 0.9966 0.8264 0.8264
vt 0.9595 0.8264 0.8264
vt 0.9595 0.6528 0.6528
vt 0.9536 0.8264 0.8264
vt 0.9458 0.8264 0.8264
vt 0.9458 0.6528 0.6528
vt 0.9536 0.6528 0.6528
vt 0.9971 0.9560 0.9560
vt 0.9971 1.0000 1.0000
vt 0.3987 0.6062 0.6062
vt 0.4897 0.6062 0.6062
vt 0.5508 0.6062 0.6062
vt 0.6118 0.6062 0.6062
vt 0.6260 0.8264 0.8264
vt 0.6260 0.6531 0.6531
vt 0.6353 0.6528 0.6528
vt 0.6353 0.8264 0.8264
vt 0.7793 0.8264 0.8264
vt 0.7793 0.6528 0.6528
vt 0.2654 0.2983 0.2983
vt 0.2866 0.2173 0.2173
vt 0.2654 0.1357 0.1357
vt 0.2135 0.1021 0.1021
vt 0.2135 0.0718 0.0718
vt 0.1479 0.1143 0.1143
vt 0.2791 0.1143 0.1143
vt 0.3062 0.2173 0.2173
vt 0.2791 0.3198 0.3198
vt 0.2135 0.3320 0.3320
vt 0.2135 0.3623 0.3623
vt 0.1616 0.2983 0.2983
vt 0.1479 0.3198 0.3198
vt 0.1616 0.1357 0.1357
vt 0.1403 0.2173 0.2173
vt 0.1208 0.2173 0.2173
vt 0.0988 0.3491 0.3491
vt 0.1149 0.0713 0.0713
vt 0.1114 0.0693 0.0693
vt 0.1058 0.0566 0.0566
vt 0.1058 0.0078 0.0078
vt 0.0988 0.0078 0.0078
vt 0.1205 0.3589 0.3589
vt 0.1205 0.0840 0.0840
vt 0.1030 0.3828 0.3828
vt 0.1793 0.5972 0.5972
vt 0.2134 0.8087 0.8087
vt 0.1841 0.6062 0.6062
vt 0.2206 0.8258 0.8258
vt 0.2264 0.8258 0.8258
vt 0.3640 0.7628 0.7628
vt 0.3613 0.8258 0.8258
vt 0.3713 0.6062 0.6062
vt 0.2158 0.8171 0.8171
vt 0.3940 0.8173 0.8173
vt 0.3926 0.7628 0.7628
vt 0.4043 0.8107 0.8107
vt 0.4084 0.7946 0.7946
vt 0.4060 0.7854 0.7854
vt 0.4004 0.7651 0.7651
vt 0.4060 0.7705 0.7705
vt 0.4114 0.7793 0.7793
vt 0.1140 0.8264 0.8264
vt 0.0951 0.8264 0.8264
vt 0.0951 0.6348 0.6348
vt 0.1672 0.6348 0.6348
vt 0.1489 0.8264 0.8264
vt 0.1672 0.8264 0.8264
vt 0.3979 0.6062 0.6062
vt 0.6196 0.7705 0.7705
vt 0.6250 0.7793 0.7793
vt 0.6196 0.7854 0.7854
vt 0.6143 0.7651 0.7651
vt 0.6221 0.7946 0.7946
vt 0.6182 0.8105 0.8105
vt 0.6079 0.8173 0.8173
vt 0.5752 0.8258 0.8258
vt 0.4402 0.8258 0.8258
vt 0.4346 0.8258 0.8258
vt 0.4272 0.8087 0.8087
vt 0.4297 0.8171 0.8171
vt 0.3342 0.0840 0.0840
vt 0.3342 0.3589 0.3589
vt 0.3125 0.3491 0.3491
vt 0.3169 0.3828 0.3828
vt 0.3931 0.5972 0.5972
vt 0.3125 0.0078 0.0078
vt 0.3196 0.0078 0.0078
vt 0.3196 0.0566 0.0566
vt 0.3252 0.0693 0.0693
vt 0.3286 0.0713 0.0713
vt 0.2219 0.8264 0.8264
vt 0.2219 1.0000 1.0000
vt 0.2450 1.0000 1.0000
vt 0.2450 0.8264 0.8264
vt 0.5630 0.8264 0.8264
vt 0.5630 1.0000 1.0000
vt 0.5742 0.8264 0.8264
vt 0.5742 1.0000 1.0000
vt 0.5859 0.8264 0.8264
vt 0.5859 1.0000 1.0000
vt 0.5957 0.8264 0.8264
vt 0.5957 1.0000 1.0000
vt 0.7422 1.0000 1.0000
vt 0.7422 0.8264 0.8264
vt 0.7778 0.8264 0.8264
vt 0.7778 1.0000 1.0000
# 231 texture coords

g Grenade_NO_PIN
usemtl Grenade
s 1
f 1/1/1 2/2/1 3/3/1 
s 2
f 4/4/2 5/5/3 6/6/4 
s 3
f 4/4/2 6/6/4 7/7/5 
s 4
f 7/7/6 8/8/7 9/9/8 
s 5
f 9/9/8 10/10/9 7/7/5 
s 6
f 7/7/5 10/10/9 4/4/2 
s 7
f 4/4/2 10/10/9 11/11/10 
s 8
f 11/11/11 12/12/12 4/4/11 
s 9
f 5/5/13 4/4/2 12/12/12 
s 10
f 12/12/12 13/13/14 5/5/3 
s 11
f 6/6/4 5/5/3 13/13/14 
s 12
f 13/13/14 14/14/15 6/6/4 
s 13
f 7/7/5 6/6/4 14/14/15 
s 14
f 8/8/7 15/15/16 9/9/8 
s 15
f 14/14/15 16/16/17 7/7/5 
s 16
f 8/8/18 7/7/18 16/16/18 
s 17
f 16/16/17 17/17/19 8/8/18 
s 18
f 15/15/16 8/8/7 17/17/19 
s 19
f 17/17/19 18/18/20 15/15/16 
s 20
f 9/9/8 15/15/16 18/18/20 
s 21
f 18/18/20 19/19/21 9/9/8 
s 22
f 10/10/9 9/9/8 19/19/21 
s 23
f 19/19/21 11/11/10 10/10/9 
s 24
f 20/20/22 21/21/23 22/22/24 
s 25
f 20/20/22 23/23/25 24/24/26 
s 26
f 24/24/26 25/25/27 20/20/22 
s 27
f 21/21/23 20/20/22 25/25/27 
s 28
f 25/25/27 26/26/28 21/21/23 
s 29
f 27/27/29 21/21/23 26/26/28 
s 30
f 21/21/23 27/27/29 28/28/30 
s 31
f 28/28/30 22/22/24 21/21/23 
s 32
f 22/22/31 28/28/31 29/29/32 
s 33
f 29/29/32 30/30/33 22/22/24 
s 34
f 30/30/33 29/29/32 31/31/34 
s 35
f 32/32/35 33/33/36 34/34/37 
s 36
f 34/34/37 33/33/36 31/31/34 
s 37
f 31/31/34 35/35/38 34/34/37 
s 38
f 35/35/38 31/31/34 29/29/32 
s 39
f 29/29/32 36/36/39 35/35/38 
s 40
f 36/36/39 29/29/32 28/28/30 
s 41
f 28/28/30 37/37/40 36/36/39 
s 42
f 38/38/41 37/37/40 28/28/30 
s 43
f 28/28/30 27/27/29 38/38/41 
s 44
f 38/38/41 27/27/29 39/39/42 
s 45
f 34/34/37 40/40/43 32/32/35 
s 46
f 32/41/35 40/42/43 41/43/44 
s 47
f 41/43/44 42/44/45 32/41/35 
s 48
f 43/45/46 32/41/35 42/44/45 
s 49
f 42/44/45 44/46/47 43/45/46 
s 50
f 44/46/47 42/44/45 39/39/42 
s 51
f 45/47/48 39/39/42 42/44/45 
s 52
f 39/39/42 45/47/48 38/38/41 
s 53
f 42/44/45 41/43/44 45/47/48 
s 54
f 26/26/28 39/39/42 27/27/29 
s 55
f 39/39/42 26/26/28 44/46/47 
s 56
f 46/48/49 44/46/47 26/26/28 
s 57
f 43/45/46 44/46/47 46/48/49 
s 58
f 46/48/49 47/49/50 43/45/46 
s 59
f 48/50/51 47/49/50 46/48/49 
s 60
f 46/48/49 49/51/52 48/50/51 
s 61
f 50/52/53 48/50/51 49/51/52 
s 62
f 49/51/52 51/53/54 50/52/53 
s 63
f 52/54/55 50/52/53 51/53/54 
s 64
f 26/26/56 25/25/56 46/48/56 
s 65
f 49/51/52 46/48/49 25/25/27 
s 66
f 25/25/27 24/24/26 49/51/52 
s 67
f 51/53/54 49/51/52 24/24/26 
s 68
f 24/24/26 53/55/57 51/53/54 
s 69
f 54/56/58 51/53/54 53/55/57 
s 70
f 53/55/57 55/57/59 54/56/58 
s 71
f 51/53/54 54/56/58 52/54/55 
s 72
f 52/54/55 54/56/58 56/58/60 
s 73
f 57/59/61 56/58/60 54/56/58 
s 74
f 54/56/58 55/57/59 57/59/61 
s 75
f 58/60/62 57/59/61 55/57/59 
s 76
f 55/57/59 59/61/63 58/60/62 
s 77
f 60/62/64 59/61/63 55/57/59 
s 78
f 55/57/59 53/55/57 60/62/64 
s 79
f 23/23/25 60/62/64 53/55/57 
s 80
f 53/55/57 24/24/26 23/23/25 
s 81
f 56/58/60 61/63/65 52/54/55 
s 82
f 62/64/66 63/65/67 64/66/68 
s 83
f 64/66/68 65/67/69 62/64/66 
s 84
f 60/62/64 65/67/69 64/66/68 
s 85
f 65/67/69 60/62/64 23/23/25 
s 86
f 23/23/25 66/68/70 65/67/69 
s 87
f 66/68/70 23/23/25 20/20/22 
s 88
f 20/20/22 67/69/71 66/68/70 
s 89
f 22/22/24 67/69/71 20/20/22 
s 90
f 68/70/72 67/69/71 22/22/24 
s 91
f 22/22/24 30/30/33 68/70/72 
s 92
f 66/68/70 67/69/71 68/70/72 
s 93
f 68/70/72 69/71/73 66/68/70 
s 94
f 65/67/69 66/68/70 69/71/73 
s 95
f 69/71/73 62/64/66 65/67/69 
s 96
f 68/70/72 30/30/33 70/72/74 
s 97
f 70/72/74 71/73/75 68/70/72 
s 98
f 69/71/73 68/70/72 71/73/75 
s 99
f 71/73/75 72/74/76 69/71/73 
s 100
f 62/64/66 69/71/73 72/74/76 
s 101
f 72/74/76 73/75/77 62/64/66 
s 102
f 63/65/67 62/64/66 73/75/77 
s 103
f 73/75/77 74/76/78 63/65/67 
s 104
f 31/31/34 70/72/74 30/30/33 
s 105
f 70/72/74 31/31/34 33/33/36 
s 106
f 33/33/36 75/77/79 70/72/74 
s 107
f 71/73/75 70/72/74 75/77/79 
s 108
f 75/77/79 76/78/80 71/73/75 
s 109
f 72/74/76 71/73/75 76/78/80 
s 110
f 76/78/80 77/79/81 72/74/76 
s 111
f 73/75/77 72/74/76 77/79/81 
s 112
f 77/79/81 78/80/82 73/75/77 
s 113
f 74/76/78 73/75/77 78/80/82 
s 114
f 78/80/82 79/81/83 74/76/78 
s 115
f 52/82/55 79/81/83 78/80/82 
s 116
f 78/80/82 50/83/53 52/82/55 
s 117
f 50/83/53 78/80/82 77/79/81 
s 118
f 77/79/81 48/84/51 50/83/53 
s 119
f 48/84/51 77/79/81 76/78/80 
s 120
f 76/78/80 47/85/50 48/84/51 
s 121
f 43/86/46 47/85/50 76/78/80 
s 122
f 76/78/80 75/77/79 43/86/46 
s 123
f 32/32/35 43/86/46 75/77/79 
s 124
f 75/77/79 33/33/36 32/32/35 
s 125
f 52/82/55 61/87/65 80/88/84 
s 126
f 64/66/68 59/61/63 60/62/64 
s 127
f 58/60/62 59/61/63 64/66/68 
s 128
f 64/66/85 81/89/86 58/60/85 
s 129
f 82/90/87 81/89/86 64/66/68 
s 130
f 64/66/68 63/65/67 82/90/87 
s 131
f 83/91/88 82/90/87 63/65/67 
s 132
f 63/65/67 74/76/78 83/91/88 
s 133
f 80/88/84 83/91/88 74/76/78 
s 134
f 74/76/78 79/81/83 80/88/84 
s 135
f 80/88/84 79/81/83 52/82/55 
s 136
f 84/92/89 85/93/89 86/94/89 
s 137
f 86/94/89 87/95/89 84/92/89 
s 138
f 88/96/90 89/97/90 85/93/90 
s 139
f 85/93/90 84/92/90 88/96/90 
s 140
f 90/98/91 91/99/91 89/97/91 
s 141
f 89/97/91 88/96/91 90/98/91 
s 142
f 92/100/92 93/101/93 94/102/94 
s 143
f 94/102/94 95/103/94 92/100/92 
s 144
f 95/103/94 94/102/94 91/99/95 
s 145
f 91/99/95 90/98/95 95/103/94 
s 146
f 96/104/96 1/105/96 3/106/97 
s 147
f 3/106/97 97/107/98 96/104/96 
s 148
f 97/107/98 3/106/97 92/100/92 
s 149
f 92/100/92 3/106/97 98/108/99 
s 150
f 98/108/99 93/101/93 92/100/92 
s 151
f 98/108/99 99/109/100 93/101/93 
s 152
f 99/109/100 98/108/99 100/110/96 
s 153
f 100/110/96 101/111/96 99/109/100 
s 154
f 102/112/101 103/113/101 104/114/101 
s 155
f 104/114/101 105/115/101 102/112/101 
s 156
f 16/116/102 37/37/102 38/38/102 
s 157
f 38/38/102 17/117/102 16/116/102 
s 158
f 17/117/103 38/38/103 45/47/103 
s 159
f 45/47/103 18/118/103 17/117/103 
s 160
f 18/118/104 45/47/104 41/43/104 
s 161
f 41/43/104 19/119/104 18/118/104 
s 162
f 19/119/105 41/43/105 40/42/105 
s 163
f 40/42/105 11/120/105 19/119/105 
s 164
f 96/104/106 106/121/107 2/122/107 
s 165
f 2/122/107 1/105/108 96/104/106 
s 166
f 107/123/109 108/124/109 103/125/109 
s 167
f 103/125/109 102/126/109 107/123/109 
s 168
f 107/123/110 109/127/110 110/128/110 
s 169
f 110/128/110 108/124/110 107/123/110 
s 170
f 111/129/110 112/130/110 113/131/110 
s 171
f 113/131/110 114/132/110 111/129/110 
s 172
f 109/127/111 111/129/111 114/132/111 
s 173
f 114/132/111 110/128/111 109/127/111 
s 174
f 115/133/112 98/108/112 3/106/112 
s 175
f 3/106/112 2/122/112 115/133/112 
s 176
f 101/111/113 100/110/114 115/133/115 
s 177
f 115/133/115 116/134/107 101/111/113 
s 178
f 11/135/116 40/40/116 34/34/116 
s 179
f 34/34/116 12/136/116 11/135/116 
s 180
f 12/136/117 34/34/117 35/35/117 
s 181
f 35/35/117 13/137/117 12/136/117 
s 182
f 13/137/118 35/35/118 36/36/118 
s 183
f 36/36/118 14/138/118 13/137/118 
s 184
f 14/138/119 36/36/119 37/37/119 
s 185
f 37/37/119 16/116/119 14/138/119 
s 186
f 117/139/120 118/140/120 119/141/121 
s 187
f 119/141/121 120/142/122 117/139/120 
s 188
f 121/143/123 120/142/122 119/141/121 
s 189
f 119/141/121 122/144/123 121/143/123 
s 190
f 112/130/124 121/143/123 122/144/123 
s 191
f 122/144/123 113/131/124 112/130/124 
s 192
f 123/145/125 124/146/126 125/147/127 
s 193
f 126/148/128 57/149/129 58/150/130 
s 194
f 57/149/129 126/148/128 125/147/127 
s 195
f 125/147/127 56/151/131 57/149/129 
s 196
f 56/151/131 125/147/127 124/146/126 
s 197
f 124/146/126 61/152/132 56/151/131 
s 198
f 61/152/132 124/146/126 123/145/125 
s 199
f 123/145/125 80/153/133 61/152/132 
s 200
f 80/153/133 123/145/125 127/154/134 
s 201
f 127/154/134 83/155/135 80/153/133 
s 202
f 83/155/135 127/154/134 128/156/136 
s 203
f 128/156/136 82/157/137 83/155/135 
s 204
f 123/145/125 125/147/127 126/148/128 
s 205
f 126/148/128 127/154/134 123/145/125 
s 206
f 127/154/134 126/148/128 129/158/138 
s 207
f 129/158/138 128/156/136 127/154/134 
s 208
f 129/158/138 130/159/139 128/156/136 
s 209
f 82/157/137 128/156/136 130/159/139 
s 210
f 130/159/139 81/160/140 82/157/137 
s 211
f 81/160/140 130/159/139 129/158/138 
s 212
f 129/158/138 58/150/130 81/160/140 
s 213
f 58/150/130 129/158/138 126/148/128 
s 214
f 131/161/141 111/162/141 109/163/141 
s 215
f 109/163/141 107/164/141 131/161/141 
s 216
f 131/161/141 107/164/141 102/165/141 
s 217
f 102/165/141 105/166/141 131/161/141 
s 218
f 121/167/141 112/168/141 111/162/141 
s 219
f 131/161/141 121/167/141 111/162/141 
s 220
f 132/169/141 121/167/141 131/161/141 
s 221
f 120/170/142 121/167/141 132/169/141 
s 222
f 120/170/142 132/169/141 133/171/143 
s 223
f 133/171/143 117/172/144 120/170/142 
s 224
f 133/171/143 134/173/145 117/172/144 
s 225
f 134/173/145 135/174/146 117/172/144 
s 226
f 101/175/147 117/172/144 135/174/146 
s 227
f 135/174/146 136/176/148 101/175/147 
s 228
f 101/175/147 116/177/141 117/172/144 
s 229
f 133/171/143 137/178/141 134/173/145 
s 230
f 136/176/148 138/179/141 101/175/147 
s 231
f 99/180/141 101/175/147 138/179/141 
s 232
f 138/179/141 86/181/141 99/180/141 
s 233
f 86/181/141 85/182/141 99/180/141 
s 234
f 85/182/141 89/183/141 99/180/141 
s 235
f 89/183/141 93/184/141 99/180/141 
s 236
f 94/185/141 93/184/141 89/183/141 
s 237
f 89/183/141 91/186/141 94/185/141 
s 238
f 98/180/141 115/177/141 100/175/141 
s 239
f 2/187/96 106/188/96 118/189/96 
s 240
f 2/187/96 118/189/96 117/190/96 
s 241
f 117/190/96 115/191/96 2/187/96 
s 242
f 117/190/96 116/192/96 115/191/96 
s 243
f 106/2/1 96/1/149 118/193/150 
s 244
f 95/194/1 90/195/1 88/196/1 
s 245
f 88/196/1 92/197/1 95/194/1 
s 246
f 88/196/1 84/198/1 92/197/1 
s 247
f 84/198/1 97/3/1 92/197/1 
s 248
f 84/198/1 87/199/1 97/3/1 
s 249
f 97/3/1 87/199/1 139/200/1 
s 250
f 139/200/1 96/1/149 97/3/1 
s 251
f 139/200/1 140/201/151 96/1/149 
s 252
f 96/1/149 140/201/151 141/202/152 
s 253
f 141/202/152 118/193/150 96/1/149 
s 254
f 118/193/150 141/202/152 142/203/153 
s 255
f 118/193/150 142/203/153 143/204/154 
s 256
f 142/203/1 144/205/1 143/204/1 
s 257
f 113/206/1 122/207/1 145/208/1 
s 258
f 145/208/1 122/207/1 146/209/1 
s 259
f 146/209/1 122/207/1 119/210/155 
s 260
f 143/204/154 146/209/1 119/210/155 
s 261
f 119/210/155 118/193/150 143/204/154 
s 262
f 145/208/1 104/211/1 103/212/1 
s 263
f 103/212/1 108/213/1 145/208/1 
s 264
f 108/213/1 110/214/1 145/208/1 
s 265
f 113/206/1 145/208/1 110/214/1 
s 266
f 114/215/1 113/206/1 110/214/1 
s 267
f 105/115/156 104/114/156 145/216/157 
s 268
f 145/216/157 131/217/157 105/115/156 
s 269
f 132/218/158 131/217/157 145/216/157 
s 270
f 145/216/157 146/219/158 132/218/158 
s 271
f 132/218/158 146/219/158 143/220/159 
s 272
f 143/220/159 133/221/159 132/218/158 
s 273
f 133/221/159 143/220/159 144/222/160 
s 274
f 144/222/160 137/223/160 133/221/159 
s 275
f 137/223/160 144/222/160 142/224/161 
s 276
f 142/224/161 134/225/161 137/223/160 
s 277
f 134/225/161 142/224/161 141/226/162 
s 278
f 141/226/162 135/227/162 134/225/161 
s 279
f 136/228/163 135/227/162 141/226/162 
s 280
f 141/226/162 140/229/163 136/228/163 
s 281
f 136/228/163 140/229/163 139/230/164 
s 282
f 139/230/164 138/231/164 136/228/163 
s 283
f 138/231/164 139/230/164 87/95/165 
s 284
f 87/95/165 86/94/165 138/231/164 
# 284 faces

